<svg viewBox="0 0 800 275" fill="none" aria-hidden="true" role="img">
    <path d="M800,31.27080194L800,183.71419967C796.52655365,191.24439485 788.89538362,196.47742644 780.04891118,196.47742644C773.71800326,196.47742644 768.00950467,193.79736288 764.00184665,189.51326516C761.70915847,191.25337118 758.84903267,192.28678055 755.74891121,192.28678055C752.34606145,192.28678055 749.23236724,191.04169119 746.84086649,188.98358603C746.13138468,190.91055089 744.27495352,192.28678055 742.09891122,192.28678055C740.919868,192.28678055 739.83465586,191.88274861 738.97487905,191.20599589C737.42561264,195.99917948 732.91537453,199.47074494 727.59891123,199.47074494C725.09019657,199.47074494 722.76100207,198.69774002 720.83773036,197.37762857C719.28422643,200.69556628 715.90878982,202.99684672 711.99891125,202.99684672C711.21652736,202.99684672 710.45554347,202.90469938 709.72627565,202.73069779C707.862785,210.02125623 701.23264329,215.41915365 693.34891127,215.41915365C692.66828912,215.41915365 691.99701036,215.37892151 691.3373355,215.30071273C688.45355315,220.48671755 682.90918892,224 676.54891128,224C670.2996566,224 664.83807929,220.6083005 661.91392442,215.57074959C659.65027791,219.33796786 655.51763536,221.86160563 650.79891131,221.86160563C645.75448331,221.86160563 641.37983613,218.97756276 639.24229732,214.77331386C637.04983148,216.0170294 634.51464344,216.72754631 631.81444724,216.72754631C623.77036549,216.72754631 617.19071072,210.42179673 616.77404783,202.49839799C610.71304132,209.03174987 602.04621218,213.12427615 592.42894792,213.12427615C578.81823429,213.12427615 567.11114466,204.92736608 562,193.21541633L562,192.62525295C560.2587507,193.60648185 558.24812088,194.16659231 556.10741281,194.16659231C549.47974017,194.16659231 544.09891087,188.79774703 544.09891087,182.18483532L544.09892721,182.16487827C542.67728967,182.8234201 541.09329365,183.19109116 539.42391088,183.19109116C536.20923117,183.19109116 533.31118288,181.827692 531.27940385,179.64930735C528.20167607,182.60383157 524.01984172,184.42134119 519.41591479,184.42134119C513.38296685,184.42134119 508.07480531,181.30044712 505.02603564,176.58984662C502.07780198,178.99012731 498.31408311,180.43024987 494.21591481,180.43024987C491.16200595,180.43024987 488.29381895,179.6305408 485.81041024,178.22973578C482.46261102,183.36646525 476.6590239,186.76610735 470.06591483,186.76610735C465.84686207,186.76610735 461.95111518,185.37396837 458.81530912,183.02535291C453.0657077,190.10377807 444.28306654,194.6315467 434.44891098,194.6315467C427.30701379,194.6315467 420.7197018,192.24353052 415.44595314,188.22478589C413.11030979,191.75311519 409.10012636,194.08277165 404.54891101,194.08277165C401.66160288,194.08277165 398.99204285,193.14515917 396.82964651,191.55870518C391.46561394,201.12757552 381.20913116,207.60259352 369.44891104,207.60259352C359.45021494,207.60259352 350.53851453,202.92204431 344.79647053,195.6389682C339.67348471,199.27645549 333.40968503,201.41640196 326.64891108,201.41640196C314.43183629,201.41640196 303.83760091,194.42853636 298.66538714,184.24352593C296.70278041,185.4223472 294.40460211,186.10058899 291.94891111,186.10058899C287.38885134,186.10058899 283.37192831,183.76186924 281.03827135,180.22201972C275.63996265,184.61352038 268.75035165,187.24802775 261.24891114,187.24802775C252.8695289,187.24802775 245.25356939,183.96076754 239.62684618,178.60933062C237.72744984,188.77326685 228.78277512,196.47742644 218.04891118,196.47742644C211.71800326,196.47742644 206.00950467,193.79736288 202.00184665,189.51326516C199.70915847,191.25337118 196.84903267,192.28678055 193.74891121,192.28678055C190.34606145,192.28678055 187.23236724,191.04169119 184.84086649,188.98358603C184.13138468,190.91055089 182.27495352,192.28678055 180.09891122,192.28678055C178.919868,192.28678055 177.83465586,191.88274861 176.97487905,191.20599589C175.42561264,195.99917948 170.91537453,199.47074494 165.59891123,199.47074494C163.09019657,199.47074494 160.76100207,198.69774002 158.83773036,197.37762857C157.28422643,200.69556628 153.90878982,202.99684672 149.99891125,202.99684672C149.21652736,202.99684672 148.45554347,202.90469938 147.72627565,202.73069779C145.862785,210.02125623 139.23264329,215.41915365 131.34891127,215.41915365C130.66828912,215.41915365 129.99701036,215.37892151 129.3373355,215.30071273C126.45355315,220.48671755 120.90918892,224 114.54891128,224C108.2996566,224 102.83807929,220.6083005 99.91392442,215.57074959C97.65027791,219.33796786 93.51763536,221.86160563 88.79891131,221.86160563C83.75448331,221.86160563 79.37983613,218.97756276 77.24229732,214.77331386C75.04983148,216.0170294 72.51464344,216.72754631 69.81444724,216.72754631C61.77036549,216.72754631 55.19071072,210.42179673 54.77404783,202.49839799C48.71304132,209.03174987 40.04621218,213.12427615 30.42894792,213.12427615C16.81823429,213.12427615 5.11114466,204.92736608 0,193.21541633L0,31.37474705C1.7412493,30.39351815 3.75187912,29.83340769 5.89258719,29.83340769C12.52025983,29.83340769 17.90108913,35.20225297 17.90108913,41.81516468L17.90107279,41.83512173C19.32271033,41.1765799 20.90670635,40.80890884 22.57608912,40.80890884C25.79076883,40.80890884 28.68881712,42.172308 30.72059615,44.35069265C33.79832393,41.39616843 37.98015828,39.57865881 42.58408521,39.57865881C48.61703315,39.57865881 53.92519469,42.69955288 56.97396436,47.41015338C59.92219802,45.00987269 63.68591689,43.56975013 67.78408519,43.56975013C70.83799405,43.56975013 73.70618105,44.3694592 76.18958976,45.77026422C79.53738898,40.63353475 85.3409761,37.23389265 91.93408517,37.23389265C96.15313793,37.23389265 100.04888482,38.62603163 103.18469088,40.97464709C108.9342923,33.89622193 117.71693346,29.3684533 127.55108902,29.3684533C134.69298621,29.3684533 141.2802982,31.75646948 146.55404686,35.77521411C148.88969021,32.24688481 152.89987364,29.91722835 157.45108899,29.91722835C160.33839712,29.91722835 163.00795715,30.85484083 165.17035349,32.44129482C170.53438606,22.87242448 180.79086884,16.39740648 192.55108896,16.39740648C202.54978506,16.39740648 211.46148547,21.07795569 217.20352947,28.3610318C222.32651529,24.72354451 228.59031497,22.58359804 235.35108892,22.58359804C247.56816371,22.58359804 258.16239909,29.57146364 263.33461286,39.75647407C265.29721959,38.5776528 267.59539789,37.89941101 270.05108889,37.89941101C274.61114866,37.89941101 278.62807169,40.23813076 280.96172865,43.77798028C286.36003735,39.38647962 293.24964835,36.75197225 300.75108886,36.75197225C309.1304711,36.75197225 316.74643061,40.03923246 322.37315382,45.39066938C324.27255016,35.22673315 333.21722488,27.52257356 343.95108882,27.52257356C350.28199674,27.52257356 355.99049533,30.20263712 359.99815335,34.48673484C362.29084153,32.74662882 365.15096733,31.71321945 368.25108879,31.71321945C371.65393855,31.71321945 374.76763276,32.95830881 377.15913351,35.01641397C377.86861532,33.08944911 379.72504648,31.71321945 381.90108878,31.71321945C383.080132,31.71321945 384.16534414,32.11725139 385.02512095,32.79400411C386.57438736,28.00082052 391.08462547,24.52925506 396.40108877,24.52925506C398.90980343,24.52925506 401.23899793,25.30225998 403.16226964,26.62237143C404.71577357,23.30443372 408.09121018,21.00315328 412.00108875,21.00315328C412.78347264,21.00315328 413.54445653,21.09530062 414.27372435,21.26930221C416.137215,13.97874377 422.76735671,8.58084635 430.65108873,8.58084635C431.33171088,8.58084635 432.00298964,8.62107849 432.6626645,8.69928727C435.54644685,3.51328245 441.09081108,0 447.45108872,0C453.7003434,0 459.16192071,3.3916995 462.08607558,8.42925041C464.34972209,4.66203214 468.48236464,2.13839437 473.20108869,2.13839437C478.24551669,2.13839437 482.62016387,5.02243724 484.75770268,9.22668614C486.95016852,7.9829706 489.48535656,7.27245369 492.18555276,7.27245369C500.22963451,7.27245369 506.80928928,13.57820327 507.22595217,21.50160201C513.28695868,14.96825013 521.95378782,10.87572385 531.57105208,10.87572385C545.18176571,10.87572385 556.88885534,19.07263392 562,30.78458367L562,31.37474705C563.7412493,30.39351815 565.75187912,29.83340769 567.89258719,29.83340769C574.52025983,29.83340769 579.90108913,35.20225297 579.90108913,41.81516468L579.90107279,41.83512173C581.32271033,41.1765799 582.90670635,40.80890884 584.57608912,40.80890884C587.79076883,40.80890884 590.68881712,42.172308 592.72059615,44.35069265C595.79832393,41.39616843 599.98015828,39.57865881 604.58408521,39.57865881C610.61703315,39.57865881 615.92519469,42.69955288 618.97396436,47.41015338C621.92219802,45.00987269 625.68591689,43.56975013 629.78408519,43.56975013C632.83799405,43.56975013 635.70618105,44.3694592 638.18958976,45.77026422C641.53738898,40.63353475 647.3409761,37.23389265 653.93408517,37.23389265C658.15313793,37.23389265 662.04888482,38.62603163 665.18469088,40.97464709C670.9342923,33.89622193 679.71693346,29.3684533 689.55108902,29.3684533C696.69298621,29.3684533 703.2802982,31.75646948 708.55404686,35.77521411C710.88969021,32.24688481 714.89987364,29.91722835 719.45108899,29.91722835C722.33839712,29.91722835 725.00795715,30.85484083 727.17035349,32.44129482C732.53438606,22.87242448 742.79086884,16.39740648 754.55108896,16.39740648C764.48673428,16.39740648 773.34904966,21.01911166 779.09452559,28.22356377C781.27399861,25.38329276 784.6915982,23.53316876 788.551051,23.48698157C793.76420152,23.42459429 798.25053024,26.67187482 800,31.27080194Z" style="fill:#f0f0f0;" />
    <path d="M800,45.71107529L800,216.30609521C799.12666919,216.37914104 798.24320573,216.41640196 797.35108892,216.41640196C790.59031497,216.41640196 784.32651529,214.27645549 779.20352947,210.6389682C773.46148547,217.92204431 764.54978506,222.60259352 754.55108896,222.60259352C742.79086884,222.60259352 732.53438606,216.12757552 727.17035349,206.55870518C725.00795715,208.14515917 722.33839712,209.08277165 719.45108899,209.08277165C714.89987364,209.08277165 710.88969021,206.75311519 708.55404686,203.22478589C703.2802982,207.24353052 696.69298621,209.6315467 689.55108902,209.6315467C679.71693346,209.6315467 670.9342923,205.10377807 665.18469088,198.02535291C662.04888482,200.37396837 658.15313793,201.76610735 653.93408517,201.76610735C647.3409761,201.76610735 641.53738898,198.36646525 638.18958976,193.22973578C635.70618105,194.6305408 632.83799405,195.43024987 629.78408519,195.43024987C625.68591689,195.43024987 621.92219802,193.99012731 618.97396436,191.58984662C615.92519469,196.30044712 610.61703315,199.42134119 604.58408521,199.42134119C599.98015828,199.42134119 595.79832393,197.60383157 592.72059615,194.64930735C590.68881712,196.827692 587.79076883,198.19109116 584.57608912,198.19109116C582.90670635,198.19109116 581.32271033,197.8234201 579.90107279,197.16487827L579.90108913,197.18483532C579.90108913,203.79774703 574.52025983,209.16659231 567.89258719,209.16659231C565.75187912,209.16659231 563.7412493,208.60648185 562,207.62525295L562,208.21541633C556.88885534,219.92736608 545.18176571,228.12427615 531.57105208,228.12427615C521.95378782,228.12427615 513.28695868,224.03174987 507.22595217,217.49839799C506.80928928,225.42179673 500.22963451,231.72754631 492.18555276,231.72754631C489.48535656,231.72754631 486.95016852,231.0170294 484.75770268,229.77331386C482.62016387,233.97756276 478.24551669,236.86160563 473.20108869,236.86160563C468.48236464,236.86160563 464.34972209,234.33796786 462.08607558,230.57074959C459.16192071,235.6083005 453.7003434,239 447.45108872,239C441.09081108,239 435.54644685,235.48671755 432.6626645,230.30071273C432.00298964,230.37892151 431.33171088,230.41915365 430.65108873,230.41915365C422.76735671,230.41915365 416.137215,225.02125623 414.27372435,217.73069779C413.54445653,217.90469938 412.78347264,217.99684672 412.00108875,217.99684672C408.09121018,217.99684672 404.71577357,215.69556628 403.16226964,212.37762857C401.23899793,213.69774002 398.90980343,214.47074494 396.40108877,214.47074494C391.08462547,214.47074494 386.57438736,210.99917948 385.02512095,206.20599589C384.16534414,206.88274861 383.080132,207.28678055 381.90108878,207.28678055C379.72504648,207.28678055 377.86861532,205.91055089 377.15913351,203.98358603C374.76763276,206.04169119 371.65393855,207.28678055 368.25108879,207.28678055C365.15096733,207.28678055 362.29084153,206.25337118 359.99815335,204.51326516C355.99049533,208.79736288 350.28199674,211.47742644 343.95108882,211.47742644C333.21722488,211.47742644 324.27255016,203.77326685 322.37315382,193.60933062C316.74643061,198.96076754 309.1304711,202.24802775 300.75108886,202.24802775C293.24964835,202.24802775 286.36003735,199.61352038 280.96172865,195.22201972C278.62807169,198.76186924 274.61114866,201.10058899 270.05108889,201.10058899C267.59539789,201.10058899 265.29721959,200.4223472 263.33461286,199.24352593C258.16239909,209.42853636 247.56816371,216.41640196 235.35108892,216.41640196C228.59031497,216.41640196 222.32651529,214.27645549 217.20352947,210.6389682C211.46148547,217.92204431 202.54978506,222.60259352 192.55108896,222.60259352C180.79086884,222.60259352 170.53438606,216.12757552 165.17035349,206.55870518C163.00795715,208.14515917 160.33839712,209.08277165 157.45108899,209.08277165C152.89987364,209.08277165 148.88969021,206.75311519 146.55404686,203.22478589C141.2802982,207.24353052 134.69298621,209.6315467 127.55108902,209.6315467C117.71693346,209.6315467 108.9342923,205.10377807 103.18469088,198.02535291C100.04888482,200.37396837 96.15313793,201.76610735 91.93408517,201.76610735C85.3409761,201.76610735 79.53738898,198.36646525 76.18958976,193.22973578C73.70618105,194.6305408 70.83799405,195.43024987 67.78408519,195.43024987C63.68591689,195.43024987 59.92219802,193.99012731 56.97396436,191.58984662C53.92519469,196.30044712 48.61703315,199.42134119 42.58408521,199.42134119C37.98015828,199.42134119 33.79832393,197.60383157 30.72059615,194.64930735C28.68881712,196.827692 25.79076883,198.19109116 22.57608912,198.19109116C20.90670635,198.19109116 19.32271033,197.8234201 17.90107279,197.16487827L17.90108913,197.18483532C17.90108913,203.79774703 12.52025983,209.16659231 5.89258719,209.16659231C3.75187912,209.16659231 1.7412493,208.60648185 0,207.62525295L0,45.78458367C5.11114466,34.07263392 16.81823429,25.87572385 30.42894792,25.87572385C40.04621218,25.87572385 48.71304132,29.96825013 54.77404783,36.50160201C55.19071072,28.57820327 61.77036549,22.27245369 69.81444724,22.27245369C72.51464344,22.27245369 75.04983148,22.9829706 77.24229732,24.22668614C79.37983613,20.02243724 83.75448331,17.13839437 88.79891131,17.13839437C93.51763536,17.13839437 97.65027791,19.66203214 99.91392442,23.42925041C102.83807929,18.3916995 108.2996566,15 114.54891128,15C120.90918892,15 126.45355315,18.51328245 129.3373355,23.69928727C129.99701036,23.62107849 130.66828912,23.58084635 131.34891127,23.58084635C139.23264329,23.58084635 145.862785,28.97874377 147.72627565,36.26930221C148.45554347,36.09530062 149.21652736,36.00315328 149.99891125,36.00315328C153.90878982,36.00315328 157.28422643,38.30443372 158.83773036,41.62237143C160.76100207,40.30225998 163.09019657,39.52925506 165.59891123,39.52925506C170.91537453,39.52925506 175.42561264,43.00082052 176.97487905,47.79400411C177.83465586,47.11725139 178.919868,46.71321945 180.09891122,46.71321945C182.27495352,46.71321945 184.13138468,48.08944911 184.84086649,50.01641397C187.23236724,47.95830881 190.34606145,46.71321945 193.74891121,46.71321945C196.84903267,46.71321945 199.70915847,47.74662882 202.00184665,49.48673484C206.00950467,45.20263712 211.71800326,42.52257356 218.04891118,42.52257356C228.78277512,42.52257356 237.72744984,50.22673315 239.62684618,60.39066938C245.25356939,55.03923246 252.8695289,51.75197225 261.24891114,51.75197225C268.75035165,51.75197225 275.63996265,54.38647962 281.03827135,58.77798028C283.37192831,55.23813076 287.38885134,52.89941101 291.94891111,52.89941101C294.40460211,52.89941101 296.70278041,53.5776528 298.66538714,54.75647407C303.83760091,44.57146364 314.43183629,37.58359804 326.64891108,37.58359804C333.40968503,37.58359804 339.67348471,39.72354451 344.79647053,43.3610318C350.53851453,36.07795569 359.45021494,31.39740648 369.44891104,31.39740648C381.20913116,31.39740648 391.46561394,37.87242448 396.82964651,47.44129482C398.99204285,45.85484083 401.66160288,44.91722835 404.54891101,44.91722835C409.10012636,44.91722835 413.11030979,47.24688481 415.44595314,50.77521411C420.7197018,46.75646948 427.30701379,44.3684533 434.44891098,44.3684533C444.28306654,44.3684533 453.0657077,48.89622193 458.81530912,55.97464709C461.95111518,53.62603163 465.84686207,52.23389265 470.06591483,52.23389265C476.6590239,52.23389265 482.46261102,55.63353475 485.81041024,60.77026422C488.29381895,59.3694592 491.16200595,58.56975013 494.21591481,58.56975013C498.31408311,58.56975013 502.07780198,60.00987269 505.02603564,62.41015338C508.07480531,57.69955288 513.38296685,54.57865881 519.41591479,54.57865881C524.01984172,54.57865881 528.20167607,56.39616843 531.27940385,59.35069265C533.31118288,57.172308 536.20923117,55.80890884 539.42391088,55.80890884C541.09329365,55.80890884 542.67728967,56.1765799 544.09892721,56.83512173L544.09891087,56.81516468C544.09891087,50.20225297 549.47974017,44.83340769 556.10741281,44.83340769C558.24812088,44.83340769 560.2587507,45.39351815 562,46.37474705L562,45.78458367C567.11114466,34.07263392 578.81823429,25.87572385 592.42894792,25.87572385C602.04621218,25.87572385 610.71304132,29.96825013 616.77404783,36.50160201C617.19071072,28.57820327 623.77036549,22.27245369 631.81444724,22.27245369C634.51464344,22.27245369 637.04983148,22.9829706 639.24229732,24.22668614C641.37983613,20.02243724 645.75448331,17.13839437 650.79891131,17.13839437C655.51763536,17.13839437 659.65027791,19.66203214 661.91392442,23.42925041C664.83807929,18.3916995 670.2996566,15 676.54891128,15C682.90918892,15 688.45355315,18.51328245 691.3373355,23.69928727C691.99701036,23.62107849 692.66828912,23.58084635 693.34891127,23.58084635C701.23264329,23.58084635 707.862785,28.97874377 709.72627565,36.26930221C710.45554347,36.09530062 711.21652736,36.00315328 711.99891125,36.00315328C715.90878982,36.00315328 719.28422643,38.30443372 720.83773036,41.62237143C722.76100207,40.30225998 725.09019657,39.52925506 727.59891123,39.52925506C732.91537453,39.52925506 737.42561264,43.00082052 738.97487905,47.79400411C739.83465586,47.11725139 740.919868,46.71321945 742.09891122,46.71321945C744.27495352,46.71321945 746.13138468,48.08944911 746.84086649,50.01641397C749.23236724,47.95830881 752.34606145,46.71321945 755.74891121,46.71321945C758.84903267,46.71321945 761.70915847,47.74662882 764.00184665,49.48673484C768.00950467,45.20263712 773.71800326,42.52257356 780.04891118,42.52257356C783.57667141,42.52257356 786.91117153,43.35474195 789.86582013,44.83290291C790.86386856,43.20471634 792.66252866,42.11720732 794.71374835,42.11720732C797.11504821,42.11720732 799.1702236,43.60760205 800,45.71107529Z" style="fill:#fff;" />
    <path d="M0,81.51994139C1.8056901,76.94739053 6.27425796,73.70796112 11.49514049,73.70796112C15.53534079,73.70796112 19.12501757,75.64789296 21.37877327,78.64433104C27.13143973,71.77233129 35.78216616,67.39740648 45.44891104,67.39740648C57.20913116,67.39740648 67.46561394,73.87242448 72.82964651,83.44129482C74.99204285,81.85484083 77.66160288,80.91722835 80.54891101,80.91722835C85.10012636,80.91722835 89.11030979,83.24688481 91.44595314,86.77521411C96.7197018,82.75646948 103.30701379,80.3684533 110.44891098,80.3684533C120.28306654,80.3684533 129.0657077,84.89622193 134.81530912,91.97464709C137.95111518,89.62603163 141.84686207,88.23389265 146.06591483,88.23389265C152.6590239,88.23389265 158.46261102,91.63353475 161.81041024,96.77026422C164.29381895,95.3694592 167.16200595,94.56975013 170.21591481,94.56975013C174.31408311,94.56975013 178.07780198,96.00987269 181.02603564,98.41015338C184.07480531,93.69955288 189.38296685,90.57865881 195.41591479,90.57865881C200.01984172,90.57865881 204.20167607,92.39616843 207.27940385,95.35069265C209.31118288,93.172308 212.20923117,91.80890884 215.42391088,91.80890884C217.09329365,91.80890884 218.67728967,92.1765799 220.09892721,92.83512173L220.09891087,92.81516468C220.09891087,86.20225297 225.47974017,80.83340769 232.10741281,80.83340769C234.24812088,80.83340769 236.2587507,81.39351815 238,82.37474705L238,81.78458367C243.11114466,70.07263392 254.81823429,61.87572385 268.42894792,61.87572385C278.04621218,61.87572385 286.71304132,65.96825013 292.77404783,72.50160201C293.19071072,64.57820327 299.77036549,58.27245369 307.81444724,58.27245369C310.51464344,58.27245369 313.04983148,58.9829706 315.24229732,60.22668614C317.37983613,56.02243724 321.75448331,53.13839437 326.79891131,53.13839437C331.51763536,53.13839437 335.65027791,55.66203214 337.91392442,59.42925041C340.83807929,54.3916995 346.2996566,51 352.54891128,51C358.90918892,51 364.45355315,54.51328245 367.3373355,59.69928727C367.99701036,59.62107849 368.66828912,59.58084635 369.34891127,59.58084635C377.23264329,59.58084635 383.862785,64.97874377 385.72627565,72.26930221C386.45554347,72.09530062 387.21652736,72.00315328 387.99891125,72.00315328C391.90878982,72.00315328 395.28422643,74.30443372 396.83773036,77.62237143C398.76100207,76.30225998 401.09019657,75.52925506 403.59891123,75.52925506C408.91537453,75.52925506 413.42561264,79.00082052 414.97487905,83.79400411C415.83465586,83.11725139 416.919868,82.71321945 418.09891122,82.71321945C420.27495352,82.71321945 422.13138468,84.08944911 422.84086649,86.01641397C425.23236724,83.95830881 428.34606145,82.71321945 431.74891121,82.71321945C434.84903267,82.71321945 437.70915847,83.74662882 440.00184665,85.48673484C444.00950467,81.20263712 449.71800326,78.52257356 456.04891118,78.52257356C466.78277512,78.52257356 475.72744984,86.22673315 477.62684618,96.39066938C483.25356939,91.03923246 490.8695289,87.75197225 499.24891114,87.75197225C506.75035165,87.75197225 513.63996265,90.38647962 519.03827135,94.77798028C521.37192831,91.23813076 525.38885134,88.89941101 529.94891111,88.89941101C532.40460211,88.89941101 534.70278041,89.5776528 536.66538714,90.75647407C541.83760091,80.57146364 552.43183629,73.58359804 564.64891108,73.58359804C571.40968503,73.58359804 577.67348471,75.72354451 582.79647053,79.3610318C588.53851453,72.07795569 597.45021494,67.39740648 607.44891104,67.39740648C619.20913116,67.39740648 629.46561394,73.87242448 634.82964651,83.44129482C636.99204285,81.85484083 639.66160288,80.91722835 642.54891101,80.91722835C647.10012636,80.91722835 651.11030979,83.24688481 653.44595314,86.77521411C658.7197018,82.75646948 665.30701379,80.3684533 672.44891098,80.3684533C682.28306654,80.3684533 691.0657077,84.89622193 696.81530912,91.97464709C699.95111518,89.62603163 703.84686207,88.23389265 708.06591483,88.23389265C714.6590239,88.23389265 720.46261102,91.63353475 723.81041024,96.77026422C726.29381895,95.3694592 729.16200595,94.56975013 732.21591481,94.56975013C736.31408311,94.56975013 740.07780198,96.00987269 743.02603564,98.41015338C746.07480531,93.69955288 751.38296685,90.57865881 757.41591479,90.57865881C762.01984172,90.57865881 766.20167607,92.39616843 769.27940385,95.35069265C771.31118288,93.172308 774.20923117,91.80890884 777.42391088,91.80890884C779.09329365,91.80890884 780.67728967,92.1765799 782.09892721,92.83512173L782.09891087,92.81516468C782.09891087,86.20225297 787.47974017,80.83340769 794.10741281,80.83340769C796.24812088,80.83340769 798.2587507,81.39351815 800,82.37474705L800,244.21541633C794.88885534,255.92736608 783.18176571,264.12427615 769.57105208,264.12427615C759.95378782,264.12427615 751.28695868,260.03174987 745.22595217,253.49839799C744.80928928,261.42179673 738.22963451,267.72754631 730.18555276,267.72754631C727.48535656,267.72754631 724.95016852,267.0170294 722.75770268,265.77331386C720.62016387,269.97756276 716.24551669,272.86160563 711.20108869,272.86160563C706.48236464,272.86160563 702.34972209,270.33796786 700.08607558,266.57074959C697.16192071,271.6083005 691.7003434,275 685.45108872,275C679.09081108,275 673.54644685,271.48671755 670.6626645,266.30071273C670.00298964,266.37892151 669.33171088,266.41915365 668.65108873,266.41915365C660.76735671,266.41915365 654.137215,261.02125623 652.27372435,253.73069779C651.54445653,253.90469938 650.78347264,253.99684672 650.00108875,253.99684672C646.09121018,253.99684672 642.71577357,251.69556628 641.16226964,248.37762857C639.23899793,249.69774002 636.90980343,250.47074494 634.40108877,250.47074494C629.08462547,250.47074494 624.57438736,246.99917948 623.02512095,242.20599589C622.16534414,242.88274861 621.080132,243.28678055 619.90108878,243.28678055C617.72504648,243.28678055 615.86861532,241.91055089 615.15913351,239.98358603C612.76763276,242.04169119 609.65393855,243.28678055 606.25108879,243.28678055C603.15096733,243.28678055 600.29084153,242.25337118 597.99815335,240.51326516C593.99049533,244.79736288 588.28199674,247.47742644 581.95108882,247.47742644C571.21722488,247.47742644 562.27255016,239.77326685 560.37315382,229.60933062C554.74643061,234.96076754 547.1304711,238.24802775 538.75108886,238.24802775C531.24964835,238.24802775 524.36003735,235.61352038 518.96172865,231.22201972C516.62807169,234.76186924 512.61114866,237.10058899 508.05108889,237.10058899C505.59539789,237.10058899 503.29721959,236.4223472 501.33461286,235.24352593C496.16239909,245.42853636 485.56816371,252.41640196 473.35108892,252.41640196C466.59031497,252.41640196 460.32651529,250.27645549 455.20352947,246.6389682C449.46148547,253.92204431 440.54978506,258.60259352 430.55108896,258.60259352C418.79086884,258.60259352 408.53438606,252.12757552 403.17035349,242.55870518C401.00795715,244.14515917 398.33839712,245.08277165 395.45108899,245.08277165C390.89987364,245.08277165 386.88969021,242.75311519 384.55404686,239.22478589C379.2802982,243.24353052 372.69298621,245.6315467 365.55108902,245.6315467C355.71693346,245.6315467 346.9342923,241.10377807 341.18469088,234.02535291C338.04888482,236.37396837 334.15313793,237.76610735 329.93408517,237.76610735C323.3409761,237.76610735 317.53738898,234.36646525 314.18958976,229.22973578C311.70618105,230.6305408 308.83799405,231.43024987 305.78408519,231.43024987C301.68591689,231.43024987 297.92219802,229.99012731 294.97396436,227.58984662C291.92519469,232.30044712 286.61703315,235.42134119 280.58408521,235.42134119C275.98015828,235.42134119 271.79832393,233.60383157 268.72059615,230.64930735C266.68881712,232.827692 263.79076883,234.19109116 260.57608912,234.19109116C258.90670635,234.19109116 257.32271033,233.8234201 255.90107279,233.16487827L255.90108913,233.18483532C255.90108913,239.79774703 250.52025983,245.16659231 243.89258719,245.16659231C241.75187912,245.16659231 239.7412493,244.60648185 238,243.62525295L238,244.21541633C232.88885534,255.92736608 221.18176571,264.12427615 207.57105208,264.12427615C197.95378782,264.12427615 189.28695868,260.03174987 183.22595217,253.49839799C182.80928928,261.42179673 176.22963451,267.72754631 168.18555276,267.72754631C165.48535656,267.72754631 162.95016852,267.0170294 160.75770268,265.77331386C158.62016387,269.97756276 154.24551669,272.86160563 149.20108869,272.86160563C144.48236464,272.86160563 140.34972209,270.33796786 138.08607558,266.57074959C135.16192071,271.6083005 129.7003434,275 123.45108872,275C117.09081108,275 111.54644685,271.48671755 108.6626645,266.30071273C108.00298964,266.37892151 107.33171088,266.41915365 106.65108873,266.41915365C98.76735671,266.41915365 92.137215,261.02125623 90.27372435,253.73069779C89.54445653,253.90469938 88.78347264,253.99684672 88.00108875,253.99684672C84.09121018,253.99684672 80.71577357,251.69556628 79.16226964,248.37762857C77.23899793,249.69774002 74.90980343,250.47074494 72.40108877,250.47074494C67.08462547,250.47074494 62.57438736,246.99917948 61.02512095,242.20599589C60.16534414,242.88274861 59.080132,243.28678055 57.90108878,243.28678055C55.72504648,243.28678055 53.86861532,241.91055089 53.15913351,239.98358603C50.76763276,242.04169119 47.65393855,243.28678055 44.25108879,243.28678055C41.15096733,243.28678055 38.29084153,242.25337118 35.99815335,240.51326516C31.99049533,244.79736288 26.28199674,247.47742644 19.95108882,247.47742644C11.10461638,247.47742644 3.47344635,242.24439485 0,234.71419967L0,81.51994139Z" style="fill:#f7f7f7;" />
</svg>
