<svg xmlns="http://www.w3.org/2000/svg" viewBox="0 0 800 160" aria-hidden="true" role="img">
  <defs>
    <style>
      .cls-1 {
        opacity: .7;
      }

      .cls-3 {
        opacity: .3;
      }

      .cls-1,
      .cls-2,
      .cls-3 {
        fill-rule: evenodd;
      }

    </style>
  </defs>
  <g>
    <path class="cls-3" d="M236.5,107.2s0,0,0,0c0,0,0,0-.1.1-.7.6-1.3,1.2-2,1.8-.7.6-1.6,1.3-2.4,1.8-2.3,1.5-4.7,2.2-4.7,2.2,0,0-4.5,2.7-7.8,3.7-2.7.8-4.5,0-4.5,0,0,0-2.3,2.8-5.6,5-3.6,2.4-8.2,4.3-8.2,4.3,0,0,22.5-36.2,44.7-53.9,18.9-15.1,37.1-11.2,37.1-11.2,0,0,0,0,0,0,.4,3.5,1.3,6.7,2.7,9.8,1.2,6.4-34.6,23.8-49.2,36.4Z" />
    <path class="cls-1" d="M356.6,31.7c-13,.7-16.6,2-28.4,2.7-27.2,1.7-67.6,15.2-67.2,19.7,5.3,7.6,17.4,21.4,21,30,0,0,.9-.7.9-.7,0,0,.9.1,1.8-.5.9-.6,1.6-1.9,1.6-1.9,0,0,1.7,0,2.9-.8,1.5-1,2.6-3,2.6-3,0,0,4,.8,6.8.2,2.6-.6,4-2.8,4.5-2.8s5.3,0,8.1-.8c2.8-.9,3.6-2.8,3.6-2.8,0,0,4.3-.4,6.4-1.6,1.7-1,1.2-2.9,1.8-2.9s5,.4,7.6-1.1c3.6-2.1,5.6-6.3,5.6-6.3,0,0,11.3-2.5,20.4-8.3,11.6-7.5,21.7-18.9,21.7-18.9,0,0-10.2-.7-21.5,0Z" />
    <path class="cls-2" d="M271.5,52.2c-.2,0-27.8-6.1-44.2-1.3-4.1,1.2-9.2,6.5-11.1,10.9-1.7,3.8-.3,6.9-.3,6.9,0,0-4.5,3.8-8,7.6-4.3,4.6-7.8,9.4-7.8,9.4,0,0,6.2-5.4,11.7-9.2,4.4-3.1,8.2-4.7,8.2-4.7,0,0,7.1-1.7,11.9.3,7,3,13.7,3.6,13.7,3.6,0,0,1.2,5,3.8,9.5,2.7,4.7,6.8,8.9,6.8,8.9,0,0-7.4,8.6-14.4,11.2-5,1.9-5.3,4.6-5.3,4.6,0,0-4,4.1-4,6.2s4,1.9,4,1.9c0,0-2.5,5.9-1.5,8.4.9,2.2,5.4.9,5.4.9,0,0-.3,7.1,1.7,9.9,1.5,2.1,5.5.1,5.5.1,0,0,.9,4,2.5,5,1.5.9,3.7-1.4,3.7-1.4,0,0,.9,4.1,2.3,3.5,2.3-1,4.8-6.5,4.8-6.5,0,0,3.2,0,5-1.7,1.7-1.6,2-4.9,2-4.9,0,0,.8-2.5,2.4-4.6,2.8-3.8,4.1-.5,9.7-15.6,1.7-4.5,5.1-5.3,7.1-9.4,4-8.2,3.2-15.9,3.1-16.2,0-6.3-1.3-14.5-3.9-20.3s-8-10-14.5-12.9Z" />
  </g>
  <g>
    <path class="cls-3" d="M718,39.1c.8-.4,2.2-2.6,3-3,.8-.4,0-1.4.8-2,2.3-1.6,4.2-3,4.2-3,0,0,3.8-.2,6-3,1.8-2.2,4-4,4-4,0,0,4.7-1.8,8-4,3.6-2.4,11-8,11-8,0,0-49.5,6.4-74.3,20.3-21.1,11.8-24.3,30.1-24.3,30.1,0,0,0,0,0,0,3.1,1.6,5.7,3.8,8.1,6.2,5.4,3.5,47.6-22.6,49.6-24.6s4-5,4-5Z" />
    <path class="cls-1" d="M611.1,105.3c7.3-10.8,10.2-13.2,16.9-23.1,15.4-22.4,27.4-27.8,31-25.1,3.9,8.5,16.7,23.7,16.4,24.1s-2.7,4.6-4.9,6.5c-2.2,2-4.2,1.7-4.2,1.7,0,0-2.5,3.5-4.7,4.6-1.8.9-3.1-.4-3.4,0s-2.2,4.5-4.8,5.9c-3.7,2.1-8.3,1.6-8.3,1.6,0,0-7.9,8.5-17.6,13.2-12.4,6.1-27.4,9-27.4,9,0,0,4.6-9.1,10.9-18.5Z" />
    <path class="cls-2" d="M671.5,52.2c-.2,0-27.8-6.1-44.2-1.3-4.1,1.2-9.2,6.5-11.1,10.9-1.7,3.8-.3,6.9-.3,6.9,0,0-4.5,3.8-8,7.6-4.3,4.6-7.8,9.4-7.8,9.4,0,0,6.2-5.4,11.7-9.2,4.4-3.1,8.2-4.7,8.2-4.7,0,0,7.1-1.7,11.9.3,7,3,13.7,3.6,13.7,3.6,0,0,1.2,5,3.8,9.5,2.7,4.7,6.8,8.9,6.8,8.9,0,0-7.4,8.6-14.4,11.2-5,1.9-5.3,4.6-5.3,4.6,0,0-4,4.1-4,6.2s4,1.9,4,1.9c0,0-2.5,5.9-1.5,8.4.9,2.2,5.4.9,5.4.9,0,0-.3,7.1,1.7,9.9,1.5,2.1,5.5.1,5.5.1,0,0,.9,4,2.5,5,1.5.9,3.7-1.4,3.7-1.4,0,0,.9,4.1,2.3,3.5,2.3-1,4.8-6.5,4.8-6.5,0,0,3.2,0,5-1.7,1.7-1.6,2-4.9,2-4.9,0,0,.8-2.5,2.4-4.6,2.8-3.8,4.1-.5,9.7-15.6,1.7-4.5,5.1-5.3,7.1-9.4,4-8.2,3.2-15.9,3.1-16.2,0-6.3-1.3-14.5-3.9-20.3s-8-10-14.5-12.9Z" />
  </g>
  <g>
    <path class="cls-2" d="M436.5,99.2s0,0,0,0c0,0,0,0-.1.1-.7.6-1.3,1.2-2,1.8-.7.6-1.6,1.3-2.4,1.8-2.3,1.5-4.7,2.2-4.7,2.2,0,0-4.5,2.7-7.8,3.7-2.7.8-4.5,0-4.5,0,0,0-2.3,2.8-5.6,5-3.6,2.4-8.2,4.3-8.2,4.3,0,0,15.8-40.9,42.7-49.9s17.6,10.9,19,14c1.2,6.4-11.8,4.5-26.4,17Z" />
    <path class="cls-2" d="M419.5,120c6.5-11.3,9.2-13.9,15.3-24.1,13.8-23.4,26.4-31.2,30.2-28.7,4.4,8.2,8.5,33.4,8.5,33.4,0,0-2.3,3.6-4.3,4.9-1.7,1.1-3.2-.2-3.4.3s-1.9,4.6-4.4,6.2c-3.5,2.3-8.2,2.1-8.2,2.1,0,0-7.3,9-16.7,14.4-12,7-26.7,10.8-26.7,10.8,0,0,4-9.4,9.7-19.2Z" />
    <path class="cls-2" d="M471.5,52.2c-.2,0-27.8-6.1-44.2-1.3-4.1,1.2-9.2,6.5-11.1,10.9-1.7,3.8-.3,6.9-.3,6.9,0,0-4.5,3.8-8,7.6-4.3,4.6-7.8,9.4-7.8,9.4,0,0,6.2-5.4,11.7-9.2,4.4-3.1,8.2-4.7,8.2-4.7,0,0,7.1-1.7,11.9.3,7,3,13.7,3.6,13.7,3.6,0,0,1.2,5,3.8,9.5,2.7,4.7,6.8,8.9,6.8,8.9,0,0-7.4,8.6-14.4,11.2-5,1.9-5.3,4.6-5.3,4.6,0,0-4,4.1-4,6.2s4,1.9,4,1.9c0,0-2.5,5.9-1.5,8.4.9,2.2,5.4.9,5.4.9,0,0-.3,7.1,1.7,9.9,1.5,2.1,5.5.1,5.5.1,0,0,.9,4,2.5,5,1.5.9,3.7-1.4,3.7-1.4,0,0,.9,4.1,2.3,3.5,2.3-1,4.8-6.5,4.8-6.5,0,0,3.2,0,5-1.7,1.7-1.6,2-4.9,2-4.9,0,0,.8-2.5,2.4-4.6,2.8-3.8,4.1-.5,9.7-15.6,1.7-4.5,5.1-5.3,7.1-9.4,4-8.2,3.2-15.9,3.1-16.2,0-6.3-1.3-14.5-3.9-20.3s-8-10-14.5-12.9Z" />
  </g>
  <g>
    <path class="cls-2" d="M163.6,33.7c-13.5.7-28.5,2.7-28.5,2.7,0,0,3.1-.8,5.5-1.9,2.5-1.2,4.3-2.9,4.3-2.9,0,0,4.6-2.4,7.2-4.8,2.1-1.9,2.3-3.8,2.3-3.8,0,0,3.6-.5,7.2-2.1,3.9-1.8,7.9-4.8,7.9-4.8,0,0-36.6,4.4-63.3,14.2-22.7,8.3-34.8,22-34.8,22,0,0-27.8-6.1-44.3-1.3-4.1,1.2-9.2,6.5-11.1,10.9-1.7,3.8-.3,6.9-.3,6.9,0,0-4.5,3.8-8,7.6-4.3,4.6-7.8,9.4-7.8,9.4,0,0,6.2-5.4,11.7-9.2,4.4-3.1,8.2-4.7,8.2-4.7,0,0,7.1-1.7,11.9.3,7,3,13.7,3.6,13.7,3.6,0,0,1.2,5,3.8,9.5,2.7,4.7,6.8,8.9,6.8,8.9,0,0-7.4,8.6-14.4,11.2-5,1.9-5.3,4.6-5.3,4.6,0,0-4,4.1-4,6.2s4,1.9,4,1.9c0,0-2.5,5.9-1.5,8.4.9,2.2,5.4.9,5.4.9,0,0-.3,7.1,1.7,9.9,1.5,2.1,5.5.1,5.5.1,0,0,.9,4,2.5,5,1.5.9,3.7-1.4,3.7-1.4,0,0,.9,4.1,2.3,3.5,2.3-1,4.8-6.5,4.8-6.5,0,0,3.2,0,5-1.7,1.7-1.6,2-4.9,2-4.9,0,0,.8-2.5,2.4-4.6,2.8-3.8,4.1-.5,9.7-15.6,1.7-4.5,5.1-5.3,7.1-9.4,4-8.3,3.1-16.3,3.1-16.3,0,0,.9.1,1.8-.5.9-.6,1.6-1.9,1.6-1.9,0,0,1.7,0,2.9-.8,1.5-1,2.6-3,2.6-3,0,0,4,.8,6.8.2,2.6-.6,4-2.8,4.5-2.8s5.3,0,8.1-.8c2.8-.9,3.6-2.8,3.6-2.8,0,0,4.3-.4,6.4-1.6,1.7-1,1.2-2.9,1.8-2.9s5,.4,7.6-1.1c3.6-2.1,5.6-6.3,5.6-6.3,0,0,11.3-2.5,20.4-8.3,11.6-7.5,21.7-18.9,21.7-18.9,0,0-10.2-.7-21.5,0Z" />
  </g>
</svg>
