<svg xmlns="http://www.w3.org/2000/svg" viewBox="0 0 809.39 550.58">
  <path d="M453.35,312.02c-13.89,1.09-27.84-1.3-40.79-5.98-12.42-4.55-24.09-11.33-33.59-20.31-3.69-7.48-6.89-15.25-10.37-23.02-4.04-9.08-8.63-18.19-14.85-26.47-6.3-8.2-13.73-15.07-21.08-21.74,3.45-.74,6.96-.88,10.56-.23,5.72.96,11.27,4.23,17.28,6.93,12.18,5.45,26.03,6.25,38.41,2.68-12.67,2.34-25.91.12-36.72-6.05-5.44-3.05-10.78-7.12-17.71-9.07-3.34-.94-6.92-1.43-10.5-1.28-2.7.1-5.34.54-7.88,1.15-5.19-4.64-10.3-9.25-15.07-14.06-5.05-5.13-9.77-10.52-13.39-16.29-.79-2.15-1.62-4.27-2.5-6.36-.21-.5-.42-.99-.63-1.49-.1-5.38-.86-10.8-2.32-16.09-.94-3.49-2.23-6.75-3.2-9.86-1-3.13-1.62-6.04-1.77-9.07-.16-2.94.09-5.88.7-8.7,1.41,1.93,2.84,3.91,4.34,5.87,2.5,3.34,5.32,6.4,8.37,9.18-.04,2.37.71,4.42,1.53,6.28,1.03,2.23,2.32,4.24,3.75,6.13,1.36,1.88,3.25,3.67,4.62,5.15,1.37,1.63,2.48,3.48,3.28,5.5,1.54,4.08,1.83,8.64,1.52,13.14-.3,4.51-1.14,9.01-2.04,13.47,1.24-4.39,2.42-8.81,3.07-13.37.65-4.54.75-9.3-.59-13.91-.71-2.28-1.8-4.47-3.22-6.45-1.58-2-2.96-3.41-4.18-5.31-1.22-1.81-2.28-3.74-3.04-5.7-.17-.44-.33-.89-.46-1.35,3.81,2.99,7.89,5.61,12.06,7.86,1.85,1.01,3.72,1.97,5.6,2.88,2.76,10.46,3.23,21.61,1.1,32.41,2.76-10.03,3.27-20.72,1.59-31.14,6.62,3.05,13.41,5.62,20.19,8.15.02.1.05.2.07.3-.01-.09-.03-.19-.04-.28.17.06.33.12.5.19-.17-.08-.34-.16-.51-.25-1.14-7.64-2.31-15.29-4.09-22.87,6.25,3.38,13.1,5.57,20.08,6.39-7.29-1.24-14.27-3.96-20.44-7.89-.39-1.61-.81-3.21-1.27-4.81-2.76-9.7-6.97-19.3-13.53-27.5-3.24-4.05-6.77-7.69-9.91-11.37-3.13-3.66-5.86-7.49-8.16-11.62-2.71-4.81-4.85-9.9-6.38-15.14.82.4,1.64.79,2.46,1.16l13.35,6.2c8.76,4.1,16.89,9.01,24.46,14.97,7.53,5.95,14.35,12.87,20.33,20.48,3.69,4.69,7.05,9.67,10.05,14.86,1.3,3.05,1.8,6.58,2.1,10,.31,4.2.26,8.46-.24,12.64-.57,4.27-.4,8.67.44,12.87.82,4.22,2.24,8.28,3.99,12.17-1.56-3.97-2.78-8.08-3.38-12.28-.63-4.2-.57-8.44.16-12.61.59-4.28.72-8.59.49-12.9-.1-1.35-.22-2.71-.41-4.07,5.11,10.04,8.9,20.81,11.07,31.98-2.46-19.4-9.79-38.25-20.93-54.65,5.53,4.29,10.84,8.91,15.9,13.75,4.26,4.15,8.4,8.48,11.87,13.23,3.47,4.78,6.49,9.97,9.48,15.17,1.11,1.96,2.23,3.92,3.36,5.88.82,2.05,1.29,4.31,1.62,6.55.43,3.13.58,6.31.52,9.49,0,3.21-.47,6.27-.74,9.57-.16,3.26.05,6.52.63,9.71,1.21,6.38,3.71,12.41,6.72,18.08,3.04,5.68,6.56,11.05,10.17,16.36-3.48-5.39-6.87-10.85-9.76-16.57-2.86-5.72-5.19-11.75-6.23-18.03-.49-3.14-.62-6.32-.39-9.47.33-3.1.88-6.39.93-9.61.13-3.24.03-6.49-.35-9.73-.06-.47-.13-.95-.21-1.43,4.13,6.76,8.68,13.28,14.35,18.86,8.53,8.59,18.84,15.35,30.07,19.66-11.1-4.65-21.13-11.68-29.3-20.41-8.31-8.68-13.93-19.35-19.54-29.96-2.85-5.3-5.71-10.63-9.18-15.68-3.53-5.04-7.64-9.53-11.89-13.86-8-8.01-16.58-15.39-25.88-21.94-3.72-4.45-7.76-8.67-12.08-12.58-7.45-6.73-15.89-12.62-24.65-17.43l-12.96-7.1c-4.34-2.31-8.08-4.82-12.81-7.43-9.16-4.95-18.83-8.03-27.3-11.92-1.69-.76-3.33-1.57-4.92-2.43,1.52.14,3.06.37,4.6.69,6.86,1.3,13.75,3.98,20.61,6.82l10.42,4.34c3.62,1.42,7.36,2.54,11.17,3.17,7.61,1.34,15.42.72,22.58-1.47-7.4,1.25-14.97.83-21.92-1.35-2.87-.86-5.62-2.02-8.26-3.37.36,0,.72,0,1.08,0,4.39-.14,8.7-.65,12.99-1.62,4.03-1.13,8.14-1.65,12.36-1.47,4.21.16,8.42.93,12.53,2.07-3.97-1.58-8.1-2.83-12.4-3.46-4.27-.65-8.78-.64-13.07.16-4.08.74-8.29,1.06-12.43,1.01-3.04-.07-6.2-.33-8.94-1.14l-3.55-2.05c-6.55-3.75-13.3-7.49-20.94-10.02-6.19-2.14-13.31-3.3-20.52-2.28-1.03-1.02-2.02-2.07-2.98-3.18-1.24-1.42-2.42-2.91-3.54-4.44C240.94,14.93,240.79,8.04,240.63,0h-40.51c-.19,9.25-.35,16.97-3.39,29.16-2.81,3.44-6.12,6.49-9.8,9.27-3.03-.64-6.13-.77-9.14-.39-5.11.56-9.31,3-13.2,4.35-7.99,2.83-17.17,3.02-25.64.24,7.98,3.97,17.48,5.3,26.65,3.49,4.66-.96,8.66-2.51,12.54-2.3.21,0,.43.01.64.02-.77.46-1.55.91-2.33,1.35-8.28,4.71-17.44,8.8-26.24,14.2-2.15,1.32-4.48,2.89-6.38,4.23-1.97,1.36-4,2.69-6.05,4l-12.58,7.87c-8.51,5.32-16.69,11.68-23.8,18.85-4.26,4.26-8.17,8.84-11.74,13.66-8.88,7.07-17.02,14.94-24.53,23.39-3.98,4.58-7.83,9.29-11.06,14.53-3.17,5.24-5.71,10.73-8.25,16.19-4.99,10.93-9.97,21.9-17.76,31.05-7.64,9.19-17.25,16.79-28.06,22.08,10.96-4.97,20.86-12.32,28.87-21.39,5.34-5.91,9.5-12.68,13.23-19.67-.05.48-.09.96-.12,1.44-.19,3.26-.1,6.51.22,9.73.24,3.21.98,6.47,1.49,9.54.41,3.13.47,6.31.16,9.48-.67,6.33-2.64,12.48-5.16,18.36-2.55,5.88-5.62,11.53-8.78,17.11,3.29-5.51,6.5-11.08,9.2-16.93,2.67-5.84,4.82-12,5.66-18.44.39-3.22.41-6.49.06-9.73-.46-3.27-1.11-6.3-1.29-9.51-.25-3.17-.28-6.36-.04-9.5.2-2.25.54-4.54,1.23-6.63,1.02-2.02,2.02-4.05,3.01-6.07,2.68-5.36,5.39-10.73,8.58-15.7,3.19-4.94,7.08-9.5,11.08-13.9,4.76-5.13,9.79-10.04,15.06-14.65-10.16,17.02-16.37,36.27-17.69,55.78,1.52-11.28,4.67-22.25,9.19-32.57-.11,1.37-.14,2.73-.17,4.09.02,4.32.41,8.61,1.24,12.85.97,4.12,1.28,8.35.9,12.58-.36,4.22-1.33,8.4-2.66,12.45,1.52-3.98,2.7-8.12,3.28-12.38.59-4.25.51-8.65-.32-12.88-.74-4.15-1.04-8.39-.98-12.6.1-3.43.39-6.99,1.52-10.11,2.74-5.46,5.88-10.72,9.36-15.7,5.58-7.98,12.04-15.31,19.3-21.68,7.28-6.4,15.18-11.76,23.76-16.38l13.07-7.02c.56-.31,1.12-.62,1.68-.93-1.22,5.32-3.06,10.54-5.49,15.5-2.06,4.26-4.56,8.24-7.47,12.08-2.92,3.87-6.23,7.7-9.23,11.93-6.07,8.57-9.71,18.41-11.9,28.25-1.21,5.42-2.04,10.87-2.69,16.33-5.68,3.71-12.07,6.4-18.77,7.83,6.5-1.04,12.83-3.27,18.62-6.53-.46,4.06-.83,8.12-1.2,12.18.81-4.34,1.64-8.68,2.58-12.98,4.98-3,9.52-6.77,13.36-11.21,4.25-4.91,7.88-10.31,12.89-13.82,3.46-2.5,7.35-4.05,11.46-4.86-.36.39-.72.77-1.07,1.17-5.95,6.6-11.17,14.1-14.63,22.34-7.03,16.4-7.89,35.08-2.6,51.63-4.06-16.91-1.72-34.99,6.07-50,3.85-7.54,9.2-14.12,15.3-19.98,5.1-4.91,10.69-9.37,16.41-13.79.09,1.63,0,3.33-.17,5.01-.34,3.07-.97,6.16-1.8,9.19-.78,3.11-1.95,5.81-3.05,9.06-.97,3.18-1.56,6.45-1.78,9.73-.26,4.44.1,8.84.84,13.16-1.12,2.82-2.19,5.67-3.2,8.55-.75,2.14-1.46,4.31-2.13,6.5-3.28,5.97-7.67,11.63-12.41,17.04-4.48,5.08-9.31,9.98-14.22,14.92-2.57-.47-5.23-.75-7.93-.69-3.59.06-7.13.76-10.41,1.89-6.8,2.35-11.89,6.72-17.15,10.09-10.42,6.79-23.52,9.79-36.3,8.19,12.56,2.84,26.34,1.23,38.18-4.92,5.84-3.04,11.19-6.63,16.84-7.92,3.56-.86,7.07-.93,10.56-.39-6.94,7.09-13.96,14.38-19.77,22.93-5.72,8.63-9.77,18-13.27,27.29-3.02,7.96-5.77,15.91-9.01,23.59-8.95,9.52-20.2,16.97-32.34,22.24-12.65,5.43-26.44,8.63-40.37,8.35,13.9.92,27.98-1.64,41.09-6.56,9.88-3.76,19.34-8.91,27.71-15.57-3.64,7.12-8.06,13.8-13.59,19.63-13.22,14.21-31.49,23.99-51.1,26.66,17.17-1.46,33.87-8.39,47.41-19.39-.51,1.99-.73,4.01-.88,6.01-.19,3.26-.1,6.51.22,9.73.24,3.21.98,6.47,1.49,9.54.41,3.13.47,6.31.16,9.48-.67,6.33-2.64,12.48-5.16,18.36-2.55,5.88-5.62,11.53-8.78,17.11,3.29-5.51,6.5-11.08,9.2-16.93,2.67-5.84,4.82-12,5.66-18.44.39-3.22.41-6.49.06-9.73-.46-3.27-1.11-6.3-1.29-9.51-.25-3.17-.28-6.36-.04-9.5.25-2.85.72-5.75,1.87-8.25,1.13-.99,2.23-2,3.31-3.05,7.29-6.94,13.09-15.43,17.69-24.34,4.6-8.92,8.26-18.2,12.2-27.17,3.53-8.11,7.4-15.96,12.24-22.99-.43,2.4-.73,4.82-.88,7.26-.14,2.54-.13,5.1.12,7.67.27,2.53.73,4.98,1.22,7.38,1.02,4.8,2.11,9.32,2.64,14.02,1.14,9.37,1.04,19.04.99,28.62-.13,4.77-.46,9.55-1.69,14.14-1.22,4.57-3.47,8.98-7.14,12.15,3.88-2.9,6.52-7.26,8.09-11.86,1.59-4.63,2.26-9.5,2.72-14.32.71-9.64,1.49-19.26.99-29.08-.4-9.95-3.45-19.34-2.05-28.19,1.08-8.24,3.9-16.59,8.35-23.26,2.63-2.6,5.35-5.16,8.09-7.7,7.2-6.66,14.67-13.24,21.74-20.53-.21,2.1-.37,4.22-.46,6.34-.26,6.34.07,12.75,1.07,19.02,1,6.26,2.56,12.31,4.36,18.18,3.34,10.86,7.45,21.13,10.68,31.44-4.8,3.59-8.38,8.32-11.14,13.13-3.37,5.9-5.72,12.1-7.85,18.26-2.1,6.09-4.29,12.11-7.34,17.72-3.03,5.57-7.02,10.81-12.53,14.29,5.84-2.91,10.51-7.87,14.18-13.28,3.71-5.44,6.57-11.39,9.28-17.3,2.68-5.83,5.56-11.55,9.15-16.57,2.44-3.43,5.26-6.51,8.43-8.83,4.63,17.59,4.93,36.14,3.35,54.67-6.54,10.46-13.86,20.45-22.07,29.7-8.06,9.08-16.91,17.48-26.4,25.16-4.66-2.81-10.19-3.33-15.15-2.77-5.24.57-10.18,2.11-14.99,3.78-4.76,1.66-9.56,3.22-14.53,3.89-4.92.68-10.18.31-14.62-2.27,4.25,2.86,9.63,3.61,14.71,3.23,5.13-.36,10.12-1.65,15.01-3.01,4.85-1.35,9.75-2.52,14.63-2.73,4.19-.2,8.38.45,11.78,2.41-4.33,3.4-8.77,6.71-13.27,9.84-5.17,3.57-10.8,6.51-16.63,9.04-11.68,5.04-24.12,8.31-36.51,11.54,12.54-2.54,25.15-5.1,37.3-9.55,6.06-2.23,12-4.92,17.57-8.32,5.52-3.42,10.8-7.05,16.04-10.84,10.45-7.57,20.33-16.04,29.39-25.34,5.7-5.85,11.05-12.03,16.07-18.49-2.21,17.5-5.14,34.89-11.19,51.26-7.8,2.51-15.4,5.62-22.52,9.79-3.91,2.31-7.68,4.98-10.85,8.39-3.07,3.37-5.67,7-8.5,10.39-5.54,6.82-12.81,12.07-20.77,15.97-7.94,3.95-16.42,6.8-24.87,9.59,8.55-2.46,17.13-4.99,25.31-8.67,8.17-3.62,15.88-8.73,21.87-15.56,3.01-3.34,5.76-6.87,8.81-9.97,3.01-3.03,6.66-5.46,10.48-7.54,6.1-3.31,12.63-5.86,19.3-7.92-1,2.43-2.07,4.83-3.22,7.2-9.61,20.76-22.78,39.86-34.29,59.97-3.02,4.02-6.35,7.88-9.78,11.59-1.95,2.14-3.94,4.06-6.09,6.04-2.08,2.02-4.1,3.99-6.4,5.67-4.55,3.4-9.79,5.89-15.29,7.47-2.75.81-5.58,1.25-8.43,1.74-2.81.52-5.75,1.32-7.86,3.35,2.18-1.95,5.11-2.63,7.91-3.05,2.84-.39,5.73-.74,8.54-1.45,5.62-1.39,11.05-3.73,15.85-7.06,2.42-1.63,4.61-3.62,6.73-5.54,2.16-1.83,4.33-3.9,6.32-5.96,1.18-1.23,2.35-2.47,3.49-3.72-4.39,8.25-8.38,16.73-11.46,25.56-3.97,11.32-6.37,23.24-6.36,35.21.4-11.96,3.18-23.71,7.49-34.79,4.29-11.11,10.05-21.58,16.25-31.74,6.61-10.85,13.8-21.39,20.73-32.13,2.2,7.28,2.09,15.21.41,22.83-1.85,8.98-5.5,17.61-7.88,26.75-1.21,4.6-1.6,9.49-.89,14.22.69,4.73,2.43,9.25,4.87,13.29,4.93,8.11,12.29,14.31,20.2,19.17-7.73-5.14-14.8-11.61-19.3-19.69-2.23-4.02-3.74-8.44-4.22-12.96-.51-4.53.04-9.1,1.35-13.47,2.59-8.83,6.53-17.38,8.76-26.64,2.26-8.86,2.54-18.69-.68-27.62,4.42-6.98,8.69-14.07,12.57-21.43-.06,2.3,0,4.6.15,6.89.28,4.18.91,8.34,2.04,12.42,1.17,4.06,2.87,7.86,4.45,11.62,3.03,7.57,6.21,15.15,8.19,23.04,2.03,7.89,2.89,16.09,2.55,24.29.71-8.17.23-16.46-1.45-24.54-1.65-8.12-4.49-15.84-7.19-23.62-1.42-3.86-2.89-7.65-3.82-11.52-.94-3.86-1.42-7.86-1.57-11.86-.17-5.41.15-10.97,1.36-16.17,2.66-5.78,4.98-11.74,6.94-17.81.86,2.33,1.97,4.55,3.29,6.6,3.79,5.91,9.19,9.82,13.72,14.17,9.11,8.63,15.09,20.71,16.52,33.5-.49-12.86-5.59-25.7-14.49-35.47-4.4-4.83-9.29-9.08-12.09-14.35-2.94-5.35-3.79-11.24-3.29-17.36h-.05c2.65-10.9,4.52-21.86,6.22-32.87,1.78-11.93,3.04-24.03,3.02-36.29.02-12.21-1.43-24.71-4.67-36.61-3.12-11.87-7.28-23.14-10.31-34.36-.13-.47-.26-.95-.38-1.42,6.79,6.22,13.78,11.74,19.66,17.95,5.07,5.33,9.27,11.39,12.55,18.12,3.31,6.7,5.7,13.96,7.75,21.37,1.2,4.34,2.28,8.74,3.35,13.18.24,3.95.05,7.96-.52,11.78-1.13,5.65-4.7,10.63-7.61,15.91-3.03,5.34-4.79,11.23-6.04,17.14-1.22,5.93-1.63,12.03-1,18.02-.12-6.01.53-12.01,2-17.79.73-2.89,1.63-5.74,2.72-8.51,1.05-2.81,2.23-5.47,3.78-8.02,2.95-5.12,6.78-10.07,8.21-16.3.22-1.24.4-2.47.53-3.71,1.77,7.17,3.7,14.33,6.22,21.33.76,5.05.96,10.22.83,15.36-.17,6.06-.88,12.14-2.39,18-.73,2.94-1.78,5.78-3.11,8.45-1.32,2.65-3.25,5.02-5.11,7.46-3.75,4.84-7.85,9.39-12.07,13.86,4.64-4.03,8.93-8.46,12.98-13.11,1.99-2.31,4.1-4.65,5.56-7.49,1.47-2.78,2.61-5.71,3.43-8.72,1.68-6,2.54-12.18,2.85-18.38.13-2.58.15-5.17.05-7.76,3.25,7.56,7.28,14.85,12.28,21.33-2.82,4.81-6.15,9.33-10.09,13.39,4.11-3.71,7.68-7.94,10.79-12.5,3.19,4.02,6.77,7.71,10.79,10.94-3.88-3.56-7.26-7.54-10.2-11.81,5.41-8.17,9.38-17.38,12.29-26.73.44-1.39.85-2.79,1.24-4.19.32.14.63.28.95.41,3.47,1.47,7.06,2.56,10.66,3.51,3.59.98,7.25,1.68,10.7,3.06-3.35-1.63-6.98-2.6-10.47-3.84-3.5-1.21-6.95-2.54-10.22-4.22-.39-.2-.78-.4-1.17-.61,3.4-12.71,5.13-25.77,7.74-38.37,1.52,4.03,3.2,8,5.15,11.85,3.48,6.35,5.84,12.88,7.44,19.88.85,3.45,1.34,7.03,2.37,10.6,1.01,3.54,2.47,6.92,4.19,10.13,3.45,6.44,8.02,12.09,12.65,17.61-4.29-5.78-8.52-11.68-11.52-18.17-1.5-3.24-2.72-6.59-3.49-10.04-.78-3.41-1.07-7.03-1.73-10.63-.63-3.59-1.41-7.18-2.5-10.7-1.02-3.5-2.57-7.03-3.9-10.26-2.62-6.58-4.53-13.42-6.09-20.36l-.22.06c.89-3.34,1.9-6.62,3.08-9.82,3.63,6.02,6.66,12.42,8.32,19.3-1.43-7.16-4.37-13.95-7.93-20.33.32-.84.66-1.68,1.01-2.51,2.88-6.91,6.72-13.21,11.47-18.83,5.51-6.55,12.16-12.46,18.58-19.07-.1.48-.19.96-.3,1.44-2.37,11.38-5.86,22.88-8.28,34.91-2.54,12.06-3.25,24.63-2.52,36.82.7,12.24,2.66,24.25,5.14,36.05,2.34,10.89,4.84,21.72,8.13,32.45h-.05c.85,6.08.34,12.01-2.28,17.53-2.49,5.42-7.12,9.95-11.23,15.03-8.32,10.28-12.66,23.39-12.4,36.26.69-12.86,5.94-25.27,14.54-34.41,4.27-4.6,9.44-8.83,12.87-14.95,1.19-2.12,2.18-4.4,2.9-6.78,2.31,5.94,4.98,11.76,7.97,17.37,1.51,5.13,2.16,10.66,2.3,16.07.09,4-.16,8.03-.87,11.93-.7,3.92-1.95,7.79-3.14,11.72-2.24,7.92-4.63,15.8-5.8,24-1.21,8.16-1.21,16.47-.02,24.58-.81-8.16-.43-16.4,1.13-24.4,1.51-8,4.25-15.75,6.83-23.48,1.36-3.85,2.83-7.73,3.76-11.86.89-4.14,1.27-8.33,1.31-12.51.03-2.29-.05-4.59-.25-6.88,4.31,7.12,8.98,13.96,13.8,20.66-2.69,9.1-1.84,18.9.94,27.61,2.77,9.11,7.2,17.41,10.3,26.08,1.56,4.28,2.38,8.81,2.13,13.37-.22,4.55-1.47,9.04-3.46,13.19-4.02,8.33-10.7,15.2-18.11,20.79,7.62-5.31,14.6-11.94,19.05-20.32,2.2-4.17,3.68-8.79,4.09-13.55.44-4.76-.24-9.62-1.72-14.14-2.91-8.98-7.05-17.39-9.43-26.24-2.13-7.52-2.7-15.42-.93-22.82,7.55,10.32,15.34,20.42,22.57,30.87,6.78,9.78,13.14,19.9,18.07,30.74,4.95,10.81,8.42,22.37,9.51,34.29-.69-11.95-3.78-23.71-8.41-34.78-3.59-8.64-8.06-16.87-12.93-24.85,1.22,1.19,2.45,2.36,3.71,3.51,2.1,1.95,4.39,3.88,6.66,5.59,2.23,1.79,4.52,3.65,7.04,5.13,4.99,3.04,10.54,5.06,16.23,6.13,2.85.55,5.75.73,8.61.95,2.83.26,5.79.76,8.08,2.59-2.22-1.91-5.21-2.53-8.04-2.89-2.87-.33-5.72-.6-8.52-1.25-5.58-1.25-10.96-3.43-15.7-6.56-2.4-1.54-4.53-3.39-6.72-5.28-2.27-1.85-4.36-3.66-6.44-5.68-3.64-3.51-7.19-7.16-10.44-11-12.66-19.4-26.93-37.7-37.73-57.87-1.29-2.3-2.5-4.64-3.64-7,6.78,1.66,13.45,3.83,19.73,6.78,3.94,1.86,7.73,4.07,10.91,6.92,3.23,2.92,6.17,6.28,9.37,9.44,6.38,6.47,14.38,11.12,22.74,14.25,8.38,3.2,17.09,5.22,25.77,7.18-8.6-2.29-17.23-4.64-25.39-8.12-8.17-3.43-15.74-8.24-21.67-14.73-3.02-3.21-5.83-6.68-9.09-9.87-3.37-3.22-7.29-5.66-11.32-7.74-7.35-3.75-15.12-6.41-23.05-8.46-7-15.98-10.94-33.17-14.17-50.51,5.39,6.15,11.09,12.01,17.12,17.51,9.59,8.76,19.94,16.63,30.82,23.58,5.45,3.48,10.93,6.79,16.64,9.89,5.76,3.08,11.85,5.41,18.03,7.28,12.39,3.74,25.12,5.56,37.79,7.36-12.55-2.5-25.16-5.04-37.12-9.39-5.96-2.18-11.76-4.78-17.13-8.05-4.67-2.86-9.3-5.9-13.82-9.04,3.28-2.15,7.43-3.05,11.62-3.09,4.88-.07,9.85.81,14.76,1.87,4.96,1.07,10.02,2.07,15.16,2.13,5.09.08,10.42-.97,14.5-4.08-4.27,2.84-9.51,3.5-14.46,3.12-5-.38-9.88-1.66-14.73-3.04-4.9-1.38-9.92-2.63-15.18-2.9-4.99-.27-10.48.57-14.97,3.65-9.92-7.11-19.26-14.98-27.83-23.58-8.74-8.76-16.63-18.31-23.77-28.37-2.66-18.4-3.44-36.94.15-54.77,3.3,2.13,6.3,5.05,8.93,8.33,3.88,4.81,7.08,10.34,10.1,16.01,3.05,5.73,6.26,11.51,10.28,16.72,3.99,5.19,8.94,9.87,14.93,12.43-5.71-3.15-9.99-8.15-13.35-13.54-3.37-5.42-5.92-11.3-8.37-17.26-2.48-6.02-5.19-12.08-8.9-17.77-3.04-4.64-6.88-9.15-11.88-12.45,2.62-10.48,6.12-20.97,8.82-32.01,1.45-5.96,2.66-12.1,3.29-18.41.63-6.32.59-12.73-.04-19.05-.21-2.11-.49-4.22-.83-6.3,7.48,6.87,15.32,13,22.9,19.23,2.89,2.38,5.75,4.77,8.53,7.22,4.83,6.4,8.13,14.58,9.69,22.74,1.91,8.76-.58,18.31-.4,28.26.07,9.84,1.41,19.4,2.68,28.98.74,4.79,1.7,9.61,3.55,14.14,1.83,4.5,4.72,8.7,8.77,11.37-3.85-2.95-6.36-7.23-7.84-11.72-1.5-4.52-2.11-9.27-2.51-14.02-.61-9.56-1.27-19.21-.68-28.63.26-4.72,1.08-9.29,1.82-14.15.35-2.42.67-4.89.79-7.44.1-2.58-.03-5.14-.32-7.67-.29-2.43-.73-4.83-1.3-7.19,5.24,6.74,9.57,14.35,13.56,22.24,4.45,8.72,8.65,17.77,13.77,26.41,5.12,8.62,11.4,16.76,19.09,23.26,1.14.98,2.3,1.93,3.48,2.85,1.29,2.42,1.93,5.29,2.35,8.12.43,3.13.58,6.31.52,9.49,0,3.21-.47,6.27-.74,9.57-.16,3.26.05,6.52.63,9.71,1.21,6.38,3.71,12.41,6.72,18.08,3.04,5.68,6.56,11.05,10.17,16.36-3.48-5.39-6.87-10.85-9.76-16.57-2.86-5.72-5.19-11.75-6.23-18.03-.49-3.14-.62-6.32-.39-9.47.33-3.1.88-6.39.93-9.61.13-3.24.03-6.49-.35-9.73-.26-1.99-.6-4-1.23-5.95,14.17,10.2,31.24,16.14,48.47,16.59-19.73-1.52-38.54-10.22-52.57-23.63-5.86-5.5-10.66-11.91-14.71-18.8,8.74,6.15,18.49,10.74,28.57,13.92,13.38,4.15,27.58,5.89,41.41,4.15ZM257.59,145.39c-.9,3.62-2.75,6.48-5.23,9.92-2.34,3.31-4.89,6.56-7.4,9.94-2.5,3.39-4.96,6.96-6.98,10.8-1.09,2-2.05,4.1-2.91,6.21-1.47-3.56-3.13-7.03-4.89-10.42-1.9-3.71-4.12-7.52-6.72-10.96-2.13-2.89-4.53-5.55-6.99-8.07,3.63-5.11,8.21-9.62,12.65-14.44,6.05-6.51,12.62-13.98,14.91-24.1.26-1.29.45-2.55.6-3.79,4.38,7.96,9.06,15.63,13.72,23.2.42,4.02.28,7.99-.75,11.72ZM235.56,196.47c2.14,7.78,2.66,15.95,1.22,23.93-.83,4.66-2.21,9.22-3.89,13.71-1.91-6.85-2.36-14-1.53-21.05.68-5.86,2.13-11.62,4.01-17.26.06.22.13.45.19.67ZM209.99,95.46c.78,1.45,1.56,2.9,2.33,4.36,3.46,6.56,6.78,13.25,10.14,19.91-1.54-7.3-3.02-14.61-4.7-21.92-.84-3.66-1.71-7.32-2.7-11-.28-1.02-.57-2.05-.88-3.09.22-.69.44-1.38.65-2.08.92-3.03,1.72-6.1,2.45-9.21.71-3.16,1.3-6.37,1.75-9.5.9-6.28,1.4-12.38,1.99-18.22.21-2.25.46-4.45.74-6.61.48,2.44.91,4.93,1.31,7.48.93,5.79,1.78,11.85,3.05,18.07.63,3.1,1.4,6.27,2.3,9.39.92,3.06,1.89,6.08,2.99,9.05,1.92,5.19,4.07,10.22,6.39,15.11-.15.88-.26,1.74-.36,2.6-.55,4.68-.51,9.11-1.14,13.01-1.2,7.64-6.09,14.88-11.65,21.71-3.83,4.76-7.96,9.73-11.21,15.27-2.5-2.45-4.99-4.83-7.34-7.27-2.97-3.02-5.22-5.58-6.66-9.02-1.41-3.17-2.15-6.63-2.42-10.22,4.67-8.97,9.15-18.17,12.96-27.83ZM259.06,103.76c4.43,2.1,8.72,4.44,12.76,7.06,2.71,1.77,5.31,3.69,7.63,5.8-1.89,6.57-2.13,13.44-.83,19.94.29,1.54.71,3.06,1.19,4.55-.37-.65-.73-1.3-1.1-1.96-6.7-11.92-13.63-23.59-19.65-35.38ZM318.54,150.6c-8.6-5.78-16.04-12.9-21.27-21.52-2.12-3.38-4.08-6.95-6.35-10.53.04-.07.08-.15.12-.22l-.36-.16c-.56-.88-1.13-1.76-1.74-2.63-3.4-4.75-7.56-8.56-11.9-11.96-7.85-6.09-16.33-10.93-25.17-15.13-1.56-3.7-2.98-7.44-4.24-11.21,1.97,2.24,4.01,4.42,6.14,6.54,6.68,6.74,14.2,12.32,21.6,17.58,7.41,5.28,14.82,10.31,21.59,16.01,6.8,5.65,12.87,12.07,17.46,19.58,2.98,4.87,5.37,10.12,7.11,15.62-1.01-.64-2.01-1.3-2.99-1.97ZM345.41,165.42c-7.01-3.42-14.03-6.9-20.67-10.88-1.35-6.75-3.63-13.36-6.82-19.55-3.98-7.77-9.5-14.72-15.65-20.83,4.13.64,8.08,2.03,11.63,4.38,5.15,3.31,9.01,8.54,13.46,13.27,3.27,3.48,6.98,6.5,11,9,2.87,7.98,4.99,16.3,7.06,24.6ZM288.71,64.23c2.45,9.44,6.58,18.33,12.07,26.19,3,4.33,6.51,8.35,10.24,11.94,3.7,3.57,7.48,6.77,10.82,10.22,6.66,6.84,11.55,15.44,15.14,24.61.2.5.39,1.01.58,1.51-3.22-2.41-6.16-5.16-8.74-8.21-4.1-4.8-7.7-10.38-13.25-14.41-2.71-1.96-5.75-3.57-9-4.62-2.92-.96-5.95-1.45-8.94-1.71-5.67-5.19-11.62-9.95-17.39-14.74-6.94-5.73-13.57-11.54-19.22-18.06-2.07-2.36-4.05-4.8-5.94-7.31,1.34.24,2.67.6,3.96,1.1,3.67,1.28,6.78,4.23,10.73,6.89,7.8,5.16,17.09,7.53,25.98,6.89-8.89-.65-17.31-4.3-23.63-9.96-3.08-2.73-6.04-6.58-10.56-9.04-3.57-2.01-7.62-3.24-11.84-3.51-1.35-2.06-2.65-4.15-3.89-6.27-1.45-2.47-2.84-4.99-4.17-7.54-.21-1.71-.42-3.43-.63-5.18-.03-.24-.06-.48-.09-.73,2.64,2.25,5.46,4.3,8.39,6.13,4.59,2.85,9.46,5.11,14.27,6.94,8.79,3.33,17.3,5.55,25.12,8.86ZM150.53,124.38c-2.98.38-5.98,1-8.86,2.08-3.2,1.18-6.17,2.91-8.8,4.99-5.38,4.25-8.74,9.98-12.64,14.95-3.24,4.17-7.13,7.84-11.48,10.9,1.1-4.9,2.35-9.75,3.91-14.48,3.05-9.37,7.43-18.24,13.68-25.46,3.14-3.64,6.72-7.06,10.21-10.84,3.51-3.8,6.78-8.02,9.52-12.51,5.04-8.18,8.65-17.31,10.53-26.91,7.95-4.06,16.6-7.35,25.28-11.55,7.3-3.51,14.73-7.9,21.17-13.73-.03.46-.06.93-.09,1.39-.26,4.01-.48,7.91-.78,11.71-.68.62-1.34,1.21-1.99,1.75l-4.23,3.55c-1.41,1.28-2.76,2.61-4.09,3.93-5.22,5.42-9.56,11.3-13.71,17.15-4.14,5.86-8.09,11.71-12.57,17.15-4.46,5.44-9.47,10.49-15.37,14.52,6.39-3.2,12.19-7.62,17.48-12.54,5.3-4.91,10.12-10.3,14.96-15.48,4.53-4.85,9.11-9.52,14.03-13.54-.31.7-.63,1.39-.96,2.08-3.53,7.42-7.95,14.4-13.38,20.58-5.41,6.25-11.86,11.96-18.3,17.76-4.53,4.06-9.13,8.17-13.53,12.55ZM160.86,153.51c.38-3.11,1.11-6.16,2.17-9.07,1.12-2.78,2.59-5.95,3.51-9.04,1-3.12,1.8-6.32,2.31-9.61.36-2.63.64-5.32.25-8.16,6.83-5.3,13.81-10.59,20.24-16.98.56-.55,1.12-1.11,1.67-1.68-5.81,14.13-13.1,28.09-20.07,42.38-3.56,7.29-7.05,14.71-10.2,22.36-.27-3.42-.27-6.84.11-10.22ZM160.89,223.77c-.22-3.74-.2-7.48.12-11.24.6-8.21,2.34-16.26,4.84-24.18.32.89.64,1.78.97,2.67-.3-.97-.59-1.95-.88-2.93,4.33-13.61,10.91-26.86,17.83-39.93,1.33,2.68,2.31,5.59,2.86,8.59.57,2.99.65,5.96.41,9.24-.22,3.26-.71,6.73-.8,10.34-.48,14.32,3.88,28.37,11.86,39.48-6.34-12.13-8.37-26.07-6.09-38.9.53-3.19,1.46-6.4,2.2-9.89.77-3.46,1.25-7.35,1.07-11.16-.26-6.58-2.09-13.16-5.43-19.08.67-1.24,1.33-2.48,2-3.72.4,1.13.87,2.24,1.4,3.35,1.02,2.09,2.26,4.1,3.77,5.9,1.57,1.86,3.06,3.27,4.59,4.75,3,2.88,6.09,5.56,9.04,8.26-.3.7-.59,1.4-.85,2.12-3.27,8.7-3.94,17.77-4.58,26.67,1.89-8.73,3.82-17.56,7.65-25.34.15-.31.32-.62.48-.93,4.98,4.84,9.15,10.14,12.51,16.35,2.63,4.59,5.02,9.31,6.97,14.18-1.79,5.3-3.33,10.75-4.34,16.31l-.51.82c-.41.71-.74,1.4-1.08,2.09-.64,1.38-1.22,2.77-1.77,4.15-1.09,2.77-2.08,5.56-3.04,8.36-1.92,5.59-3.67,11.22-5.46,16.83,2.4-5.38,4.75-10.79,7.26-16.1,1.14-2.41,2.29-4.8,3.51-7.14-.52,8.19.64,16.58,3.6,24.21.07.17.14.35.21.52-.73,1.75-1.49,3.49-2.27,5.22-2.38,5.28-4.96,10.5-7.36,15.81-1.12-.7-2.27-1.35-3.44-1.95-5.65-2.96-11.64-5.04-17.77-6.55-5.55-1.41-11.24-2.24-17.07-2.44-8.2-8.4-16.63-15.91-22.39-24.75ZM242.05,346.58c-2.24,9.16-5.45,18.24-10.13,26.5-5.47-8.2-9.39-17.42-12.26-26.78-4.04-13-5.82-26.52-8.39-40.12,1.33,2.08,2.64,4.2,3.96,6.29,1.97,3.15,3.93,6.33,6.04,9.46,1.05,1.57,2.14,3.12,3.32,4.64,1.24,1.47,2.46,2.93,3.79,4.31,2.66,2.75,5.6,5.21,8.73,7.37,1.95,1.29,3.96,2.46,6.03,3.52-.33,1.61-.69,3.22-1.09,4.81ZM243.55,339.72c-1.73-1.07-3.4-2.22-4.99-3.46-2.83-2.28-5.43-4.81-7.75-7.58-4.64-5.5-8.02-12.03-11.65-18.52-3.39-6.03-6.57-12.16-10.96-17.98-1.27-4.89-2.8-9.76-4.78-14.52-3.07-7.5-7.38-14.7-12.68-21.02-.58-.68-1.16-1.36-1.76-2.02,3.39.34,6.8.89,10.16,1.56,5.84,1.22,11.6,2.95,17.01,5.32,1.26.55,2.49,1.16,3.67,1.82-.43,1-.85,2-1.26,3.01-3.13,7.71-5.52,15.83-5.91,24.16.72-8.3,3.41-16.25,6.81-23.77.43-.95.87-1.9,1.32-2.84,1.02.61,2.01,1.26,2.96,1.94,1.2.84,2.16,1.78,3.23,2.81,1.08,1.07,2.13,2.16,3.17,3.27,4.14,4.46,8.16,9.07,12.1,13.83-2.77-5.52-6.04-10.82-9.77-15.78-.93-1.25-1.87-2.48-2.84-3.7-1.03-1.21-2.23-2.46-3.48-3.47-1.14-.95-2.33-1.82-3.55-2.63,2.62-5.24,5.42-10.39,8.06-15.67.55-1.11,1.1-2.22,1.64-3.34,2.97,6.68,6.92,12.8,11.07,18.66,3.76,5.33,7.7,10.49,11.39,15.81-.18.5-.36,1-.53,1.49-2.68,7.68-4.23,15.56-5.4,23.36-1.96,13.25-2.82,26.41-5.3,39.26ZM265.68,255.38c-4.3,5.78-7.8,12.18-10.37,18.82-3.36-5.23-6.93-10.32-10.29-15.51-4.37-6.73-8.41-13.69-11.04-21.14,2.37-5.31,4.41-10.81,5.69-16.59,1.86-8.32,1.66-17.15-.29-25.46-.48-2.07-1.05-4.12-1.7-6.14.75-2.06,1.59-4.05,2.52-5.97,4.45,3.44,8.09,8,10.49,13.16,2.93,5.9,3.23,12.75,4.81,19.53,2.74,11.65,8.83,22.38,17.23,30.66-2.41,2.77-4.79,5.63-7.04,8.63ZM272.89,246.55c-7.96-8.63-13.4-19.47-15.51-30.86-1.22-6.52-1.17-13.66-4.04-20.29-2.43-5.94-6.36-11.29-11.39-15.4,2.18-3.92,4.74-7.59,7.68-11.16,2.56-3.18,5.28-6.37,7.87-9.74,1.3-1.69,2.56-3.31,3.83-5.38,1.22-2.01,2.14-4.18,2.83-6.4.3-.98.55-1.96.76-2.94.42.69.84,1.39,1.26,2.08,12.23,20.14,23.65,40.79,26.6,63.14.54,3.73.78,7.46.77,11.21-5.18,9.06-13.05,16.98-20.66,25.73Z" />
</svg>
