<svg xmlns="http://www.w3.org/2000/svg" viewBox="0 0 809.39 378.41">
  <path d="M753.83,78.38c6.29-.1,12.93.5,19-1.72-6.2,1.83-12.61.82-18.98.52-3.21-.09-6.44-.27-9.75.61-3.15.88-6,2.36-8.79,3.76-8.23-1.12-16.5-1.73-23.83-4.77-3.62-1.45-7.05-3.31-10.49-5.3-.04-.05-.07-.1-.11-.15l-.06.05c-4.02-2.33-8.05-4.82-12.44-7.05-.9-.45-1.82-.85-2.76-1.22,12.08-1.94,24.04-4.32,35.94-6.27,14.57-2.48,29.25-4.18,44.01-4.02,14.75.22,29.51,2.34,43.82,6.26-14.12-4.56-28.85-7.37-43.75-8.26-14.91-.83-29.89.23-44.65,2.06-29.45,3.54-58.97,9.32-87.64,5.2-14.18-1.85-27.75-7.75-43.21-10.4-15.33-2.65-30.61-2.12-45.28-2.2-7.35-.02-14.59-.18-21.65-.87l-5.69-.5-5.72-.3c-3.74-.16-7.38-.29-10.93-.54-7.08-.5-13.9-1.45-19.85-3.65-3.48-1.25-6.59-2.95-9.28-5.07-10.56-15.1-11.45-23.97-12.49-34.55h-109.09c-.96,9.72-1.78,18.01-10.11,31.01-3.26,3.35-7.3,5.96-12,7.79-5.92,2.36-12.7,3.51-19.74,4.18-6.97.68-14.65.8-22.16,1.63-7.06.69-14.3.84-21.65.86-14.67.08-29.95-.45-45.28,2.21-15.46,2.65-29.02,8.55-43.2,10.4-28.66,4.12-58.19-1.67-87.63-5.2-14.76-1.83-29.74-2.89-44.65-2.06-14.89.89-29.62,3.7-43.74,8.26,14.31-3.92,29.07-6.04,43.82-6.26,14.76-.15,29.44,1.55,44.01,4.02,11.9,1.95,23.86,4.34,35.95,6.27-.94.37-1.86.78-2.76,1.22-4.38,2.23-8.42,4.72-12.44,7.05l-.06-.05c-.04.05-.07.1-.11.15-3.44,1.99-6.87,3.85-10.49,5.3-7.33,3.04-15.6,3.64-23.83,4.77-2.79-1.4-5.64-2.88-8.79-3.76-3.31-.89-6.54-.71-9.75-.61-6.37.29-12.78,1.3-18.98-.52,6.07,2.22,12.71,1.62,19,1.72,3.14.06,6.38.23,9.24,1.06,2.06.63,4.03,1.6,6,2.61-8.14,1.34-16.54,3.88-22.39,9.86,6.66-5.96,15.71-7.75,24.3-8.47,8.67-.73,17.67-.59,26.32-3.51,1.75-.58,3.46-1.24,5.14-1.96-.63,1.03-1.26,2.04-1.91,3.01-1.98,3.11-4.32,5.36-7.52,7.47-3.05,2.1-6.49,4.57-8.3,8.16-1.86,3.47-2.4,7.56-1.45,11.22-.58-3.74.37-7.59,2.4-10.64,2.01-3.13,5.23-5.01,8.52-6.83,1.64-.93,3.33-1.89,4.88-3.14,1.58-1.26,2.88-2.71,4.13-4.2,2.44-2.95,4.5-6.07,6.91-8.68,3.77-1.9,7.46-3.84,11.2-5.44,7.49-3.26,15.83-3.04,24.35-2.84,9.76.78,19.62.92,29.61-.03,14.04-1.26,27.17-5.84,39.91-7.91-.63.53-1.26,1.05-1.87,1.58-6.24,5.36-11.98,10.83-18.74,14.53-6.6,3.9-14.65,4.84-22.68,6.57-4.01.87-8.04,2.06-11.73,3.96-3.67,1.88-7.03,4.54-9.19,8,5.2-6.49,13.55-8.58,21.34-9.44,4.66-.52,9.57-.74,14.46-1.58-1.98,3.84-4.59,7.53-7.5,10.85-2.08,2.31-4.34,4.51-6.92,6.25-2.5,1.81-5.64,2.86-8.39,4.53,2.98-1.18,6.2-1.59,9.21-3.1,3-1.42,5.7-3.36,8.25-5.44,4.93-4.19,9.34-8.98,12.69-14.94.89-.31,1.78-.66,2.67-1.05,7.95-3.32,14.65-8.54,21.23-13.05,5.9-4.1,11.87-7.67,18-9.2,8.69-.02,17.54.52,26.52.89,7.47.31,15.08.51,22.82.11,7.27-.51,14.44-.37,22.26-.83,7.72-.47,15.78-1.43,23.79-4.27,3.34-1.14,6.65-2.7,9.79-4.63-7.91,12.01-19.79,21.73-33.53,26.83-3.27,1.3-6.71,2.21-10.27,2.93-5.26-1.93-10.72-3.17-16.28-3.56-6.07-.43-12.34.23-18.06,2.46-5.6,2.33-10.1,5.14-15.52,6.45-5.31,1.44-10.96,1.96-16.59,1.47,5.49,1.35,11.3,1.73,17.07,1.08,5.8-.48,11.51-2.82,16.59-4.05,3.51-.77,7.09-.9,10.64-.54-10.79,1.74-21.3,5.88-30.59,11.07-4.65,2.57-9.09,5.37-13.42,8.28l-14.92,1.04c-5.13.36-10.34.59-15.66,2.34-5.41,1.79-9.33,5.53-13.29,8.58-3.91,3.03-8.5,5.81-13.71,5.37,5.13,1.13,10.41-1.15,14.79-3.77,4.44-2.64,8.63-5.62,13.24-6.47,4.6-.93,9.74-.58,14.8-.28l4.62.26c-10.24,7.34-20.19,14.81-31.08,20.73-2.27,1.24-4.58,2.41-6.93,3.47-4.13.57-8.59-.04-12.94-.91-4.48-.95-8.89-2.43-12.91-4.78,3.75,2.75,8.07,4.73,12.53,6.17,2.35.76,4.75,1.51,7.23,2.03-5.56,2.06-11.31,3.55-17.23,4.31-10.71,1.29-21.65.35-32.44-1.07,10.68,2.05,21.57,3.65,32.61,2.98,11.03-.73,21.85-4.03,31.82-8.77,10.62-5.02,20.44-11.33,30.18-17.52-.09,1.34-.09,2.78-.06,3.87.01,1.17-.14,2.36-.48,3.52-1.34,4.78-5.75,8.69-10.1,12.07,2.52-1.19,5.06-2.41,7.44-4.04,2.37-1.62,4.63-3.71,6.19-6.47.78-1.37,1.37-2.89,1.73-4.47.32-1.54.59-2.64,1-3.89.78-2.41,1.88-4.54,3.32-6.17l-.06-.04c5.66-3.46,11.36-6.73,17.25-9.53,5.55-2.66,11.18-4.83,16.95-6.36-2.89,7.73-5.71,15.33-9.07,22.64-4.47,9.92-10.49,19.01-18.11,26.82-1.29,1.32-2.62,2.59-4.01,3.8-4.37,2.06-9.06,3.48-13.91,3.79-2.93.17-5.98-.03-8.96-.39-2.99-.39-5.96-1.08-8.81-2.16,2.73,1.36,5.64,2.38,8.64,3.09,3,.68,6.03,1.24,9.18,1.28,2.53.04,5.05-.21,7.53-.69-5.23,3.57-10.99,6.37-17.2,8.16-5.3,1.64-10.81,2.94-16.12,4.92-5.28,1.97-10.45,4.68-14.31,8.8,4.17-3.8,9.41-6.03,14.72-7.56,5.34-1.53,10.86-2.39,16.39-3.63,11.19-2.27,21.81-7.95,30.46-15.6,8.69-7.58,15.98-16.95,21.47-27.1,5.15-9.32,9.33-18.99,13.7-28.29.42-.04.84-.09,1.26-.12,10.38-1.05,21.96-.92,33.38-4.61,20.18-6.22,37.75-20.55,47.98-39.56-7.4,16.86-15.68,32.96-27.54,46.16-3.85,4.22-8.06,8.05-12.6,11.49-1.64,1.22-3.34,2.39-5.08,3.53-4.27-1.87-8.93-2.37-13.29-1.56-5.15.98-9.13,3.67-12.56,6.16-3.47,2.55-6.62,4.95-10.37,6.66-3.71,1.75-7.74,2.96-11.93,3.53,4.22.28,8.54-.09,12.77-1.11,4.25-.96,8.36-2.92,12.11-4.65,3.77-1.74,7.46-3.05,10.75-2.93.71.02,1.41.09,2.1.22-10.14,5.88-21.13,11.86-29.85,21.17-1.97,2.12-3.72,4.35-5.31,6.65-9.03,1.7-15.9,6.77-21.65,12.43-1.47,1.5-2.86,3.09-4.14,4.75l-3.52,4.75c-2.31,3.13-4.63,6.15-7.23,8.82-2.59,2.69-5.51,4.94-8.85,6.52-3.35,1.6-7.1,2.6-10.89,3.63-3.79,1.02-7.67,2.14-11.24,3.92-3.57,1.75-6.87,4-9.77,6.65,3.15-2.34,6.61-4.22,10.23-5.56,3.62-1.37,7.42-2.06,11.28-2.7,3.86-.65,7.82-1.27,11.73-2.66,3.92-1.39,7.57-3.66,10.69-6.32,3.16-2.65,5.94-5.62,8.59-8.55l3.94-4.33c1.24-1.33,2.57-2.58,3.96-3.76,3.18-2.66,6.79-4.99,10.47-6.54-2.44,4.92-4.56,9.9-6.79,14.65-4.94,10.83-11.16,20.98-21.43,26.88-10.04,6.15-21.96,9.2-33.03,14.41-5.49,2.67-10.81,5.85-15.3,10.04-4.48,4.14-8.06,9.39-9.54,15.3,1.79-5.82,5.59-10.76,10.17-14.57,4.59-3.85,9.94-6.68,15.44-9,1.19-.49,2.38-.94,3.59-1.39-.66,1.47-1.11,3.04-1.21,4.67-.2,2.78.86,5.28,1.7,7.62.86,2.34,1.62,4.79,1.07,7.22-.54,2.43-2.05,4.56-3.53,6.59,1.6-1.94,3.27-3.94,4.01-6.47.76-2.55.11-5.25-.6-7.66-.7-2.43-1.5-4.84-1.15-7.17.27-2.08,1.19-4.04,2.42-5.78,9.24-3.19,18.88-5.65,27.87-10.48,5.51-2.92,10.62-7.03,14.59-11.94,2.9-3.51,5.36-7.3,7.58-11.16,1.49,2.65,1.96,6.44,1.25,10-.97,5.07-3.95,10.12-6.6,15.43-2.71,5.36-4.63,11.24-5.14,17.21-.54,5.95.3,12.07,2.92,17.33-2.02-5.52-2.14-11.48-1.01-17.05,1.12-5.62,3.49-10.83,6.59-15.59,3.06-4.83,6.83-9.59,8.85-15.91.96-3.16,1.33-6.54.84-10.03-.41-2.94-1.61-6.07-3.8-8.58,5.15-9.9,9.96-19.74,17.42-26.87,8.15-7.86,18.82-12.99,29.64-18.5,5.42-2.76,10.95-5.7,16.29-9.23,5.31-3.59,10.3-7.68,14.85-12.17.71-.72,1.41-1.45,2.11-2.18-.53,1.81-1.27,3.57-2.22,5.21-3.58,6.25-10.54,10.88-17.05,16.34-3.25,2.75-6.46,5.88-8.85,9.6-2.39,3.68-4.14,7.71-5.18,11.86-2.14,8.31-1.98,16.86-.62,25.05-.52-8.28.25-16.68,3.07-24.28,1.38-3.8,3.38-7.31,5.84-10.36,2.45-3.06,5.53-5.51,8.86-7.79,6.57-4.57,14.56-8.41,20.35-16.16,4.49-6.2,6.71-13.99,6.12-21.82,10.17-13.73,17.82-28.95,24.99-43.8.24-.5.74-.81,1.29-.81h0c.79,0,1.43.63,1.44,1.42.05,9.2-1.36,18.49-4.26,27.34-1.74,5.39-4,10.62-6.8,15.57-2.72,4.95-6.15,9.54-9.81,14.72-3.57,5.16-7.3,10.96-9.14,17.92-1.08,4.07-1.37,8.13-1.24,12.05h-.05c-.23,3.09-.56,5.95-1.37,8.43-.8,2.47-2.22,4.79-4.14,7.04-3.66,4.28-9.39,7.35-14.93,11.08-11.25,7.6-19.55,18.92-23.39,31.37,5.39-11.87,14.78-21.51,25.91-27.12,5.57-2.88,12.01-5.13,17.64-10.09.97-.84,1.93-1.77,2.84-2.78.48,2.73.91,5.4,1.16,8.03.57,5.64.11,11.07-1.69,16.41-3.45,10.72-11.19,20.11-19.75,28.32-4.36,4.14-9.06,8.05-13.78,12.01v-.02c-5.08,1.95-11.22,1.57-17.43,1.51-3.12-.02-6.34.05-9.56.69-3.25.6-6.29,1.94-9.01,3.48-5.35,3.11-10.89,6.3-15.01,11.19-4.26,4.9-5.4,11.34-6.3,17.34,1.32-5.96,2.94-12.19,7.27-16.48,4.19-4.34,9.77-7.07,15.22-9.75,5.43-2.82,11.13-3.19,17.23-2.61,3.37.23,6.89.67,10.52.66-2.26,1.97-4.49,3.98-6.66,6.07-8.91,8.46-16.85,18.74-20.29,30.77-3.52,11.89-3.17,24.8,1.07,36.25-3.63-11.66-3.24-24.36.76-35.66,2.42-6.99,6.37-13.2,11.16-18.75.5.51.95,1.18,1.27,1.95.62,1.4.93,3.14,1.42,4.97,1,3.8,3.16,6.95,5.18,9.9,2.03,2.98,4.11,5.98,6.55,8.7,2.43,2.71,5.27,5.12,8.56,6.62-3.14-1.79-5.69-4.39-7.82-7.23-2.14-2.85-3.9-5.96-5.66-9.1-1.76-3.13-3.45-6.24-4-9.53-.31-1.68-.44-3.54-1.09-5.52-.4-1.18-1.01-2.42-1.96-3.48,2.35-2.48,4.85-4.83,7.44-7.04,4.05-3.52,8.31-6.79,12.64-10.05.05-.01.1-.03.15-.04l-.02-.06c2.21-1.67,4.44-3.34,6.67-5.04-1.09,2.86-1.84,5.89-1.89,9.16.07,8.09,4.37,14.52,7.43,20.78,3.16,6.34,5.91,12.93,7.05,19.91,1.13,6.93.66,14.34-2.48,20.82,3.53-6.28,4.49-13.8,3.75-20.99-.75-7.24-3.17-14.2-6-20.82-2.82-6.58-6.33-13.05-5.91-19.58.39-5.87,3.81-11.16,7.25-16.63.04-.04.09-.07.13-.11,3.94-3.43,7.82-7.11,11.36-11.15.14,3.21.78,6.35,1.8,9.29,1.82,5.28,4.92,9.94,8.63,13.79,3.71,3.88,8.01,7.02,12.54,9.65-8.37-6.12-15.59-14.48-17.82-24.37-1.13-4.88-1.03-10,.53-14.53.4-1.22.95-2.41,1.58-3.62,1.74-2.85,3.27-5.87,4.51-9.08,2.46-6.09,3.42-13.07,3.08-19.56-.27-6.51-1.4-12.63-1.95-18.43-.18-1.74-.3-3.46-.34-5.13.02-.1.05-.2.07-.3h-.08c-.06-3.8.31-7.38,1.38-10.64,1.53-4.83,4.67-9.39,8.27-14.02,1.58-2.01,3.27-4.1,4.96-6.28.24,2.25.64,4.5,1.23,6.71.81,3.12,2.16,5.88,3.13,8.4,1,2.56,1.62,4.92,1.34,7.45-.25,2.55-1.22,5.19-2.33,7.82-2.22,5.28-4.86,10.41-7.89,15.34,3.73-4.43,7.14-9.17,10.18-14.17,1.51-2.5,3.03-5.15,3.83-8.3.87-3.17.49-6.69-.21-9.62-.69-3-1.51-5.63-1.76-8.2-.29-2.61-.29-5.25-.03-7.92.39-4.13,1.31-8.28,2.37-12.52,1.96-3.66,3.68-7.44,5.17-11.33,4.08-10.56,6.35-21.85,6.69-33.29h.36c3.15,11.25,6.06,22.4,7.65,33.53-.38.91-.79,1.81-1.24,2.7-1.75,3.46-4.04,6.31-7.01,9.57-1.42,1.65-2.89,3.5-3.95,5.58-1.05,2.07-1.74,4.25-2.13,6.42-.78,4.37-.5,8.67.15,12.83.19-4.2.82-8.4,2.32-12.13,1.51-3.82,3.88-6.62,7.15-8.99,1.86-1.35,3.9-2.93,5.83-4.71.62,12.61-1.18,25.01-6.97,35.99-3.19,6.25-7.38,12.47-11.02,19.47-3.69,6.93-6.45,15.17-6.78,23.37-.2,3.56-.04,7.09.39,10.55-1.18,3.46-1.82,7.07-1.9,10.69-.09,2.58.24,5.44.66,7.74l1.2,7.05c.74,4.62,1.26,9.19.86,13.61-.36,4.33-2.05,8.56-4.25,12.67-2.19,4.12-4.79,8.22-6.85,12.68-2.17,4.48-3.17,9.51-3.15,14.41.13,9.82,4.45,19.48,11.89,25.56-7.01-6.57-10.45-16.27-9.95-25.52.31-4.64,1.52-9.15,3.81-13.14,2.24-4.09,5.04-7.9,7.63-12.04,2.58-4.11,4.92-8.79,5.72-13.99.82-5.08.56-10.12.13-14.97-.12-1.54-.29-3.06-.45-4.55,1.92,4.9,4.15,9.63,6.57,14.21,4.2,7.88,8.8,15.36,13,22.92-5.19,8.68-8.1,18.59-8.4,28.54-.33,10.76,1.96,20.89-.2,30.48-2.11,9.53-9.22,17.54-16.61,24.38-3.71,3.44-8.19,6.26-11.5,10.41-3.27,3.98-4.94,10.08-2.03,14.59-2.59-4.67-.56-10.39,2.77-13.97,3.4-3.76,7.95-6.26,12.01-9.56,4.07-3.26,7.89-6.82,11.31-10.86,3.38-4.04,6.3-8.73,7.79-14.02,3.02-10.6,1.24-21.35,2.24-31.09.7-7.49,3.04-14.77,6.72-21.21,1.42,2.83,2.75,5.69,3.95,8.61,2.76,6.71,4.75,13.7,5.41,20.86.7,7.17.1,14.5-1.03,21.77-2.26,14.57-6.96,28.97-8.34,44.04-.69,7.49-.65,15.12.82,22.51,1.39,7.39,4.46,14.5,9.18,20.3-4.47-6.01-7.17-13.15-8.23-20.47-1.14-7.33-.85-14.81.14-22.13,1.98-14.69,7.24-28.74,10.22-43.57.81-4.07,1.47-8.2,1.83-12.39,5.8,5.22,11.41,10.5,14.51,17.16,3.61,8.13,2.89,17.74,2.59,27.11-.15,4.73-.16,9.54.55,14.31.75,4.77,2.37,9.41,4.85,13.51,4.88,8.23,12.77,14.61,21.83,17.32-8.92-3.12-16.34-9.79-20.69-17.96-2.21-4.08-3.54-8.56-4.05-13.13-.47-4.59-.25-9.24.11-13.91.67-9.25,2.08-19.17-1.59-28.75-3.9-9.31-11.32-15.8-17.81-22.26,0-1.27-.02-2.54-.09-3.81-.37-7.75-2.2-15.38-4.81-22.59-5.23-14.46-13.25-27.41-19.54-40.6-1.33-2.81-2.59-5.68-3.74-8.57.39,0,.81.05,1.25.13,1.62.28,3.43.95,5.27,1.67,1.86.72,3.8,1.5,5.86,1.96,2.05.46,4.29.48,6.12-.34-2.01.17-3.83-.53-5.42-1.49-1.6-.97-3.05-2.22-4.56-3.5-1.53-1.28-3.11-2.63-5.15-3.79-1.58-.9-3.65-1.67-5.93-1.75-2.66-8.35-4.12-16.84-3.31-25.12.61-6.77,2.94-12.92,6.49-19.03.69-1.2,1.42-2.41,2.18-3.61,1.01,3.45,2.32,6.79,3.93,9.98,3.98,8.06,9.87,14.22,14.44,20.73,2.32,3.26,4.31,6.64,5.66,10.32,1.35,3.68,2.11,7.63,2.46,11.65.64,8.07-.35,16.33-1.41,24.49,1.9-8.02,3.76-16.12,3.98-24.57.07-4.21-.29-8.5-1.35-12.71-1.07-4.22-2.91-8.22-5-11.91-4.19-7.41-9.15-13.96-11.75-21.12-2.31-6.07-3.4-12.53-3.28-18.88.68-1.11,1.36-2.24,2.02-3.39,2.54-4.39,4.62-9.18,6.19-14.1,1.01,1.37,2.03,2.72,3.08,4.05,3.93,5,8.35,9.8,12.74,14.1,2.11,2.11,3.59,4.2,4.57,6.97.99,2.71,1.53,5.74,2.07,8.79,1.05,6.09,1.78,12.26,2.19,18.48.45-6.21.58-12.47.37-18.74-.12-3.12-.22-6.3-.92-9.58-.61-3.26-2.34-6.66-4.34-9.22-3.85-5-7.24-9.89-10.32-15.16-2.4-4.08-4.57-8.27-6.51-12.55.94-6.55,1.14-13.13.86-19.6-.6-13.15-3.06-25.82-5.85-38.14-.18-.81.43-1.58,1.26-1.58h.2c.9,0,1.67.63,1.86,1.51,4.27,19.83,11.51,38.9,21.39,56.42,5.49,9.97,12.32,18.76,16.92,27.89,2.3,4.58,4.04,9.28,4.69,14.1.69,4.79.25,9.93-.5,15.24-.31,2.28-.68,4.59-1.03,6.95-4.78,5.59-7.84,12.24-9.18,19.26-.67,3.65-.91,7.42-.42,11.18.48,3.82,1.78,7.37,3.13,10.55,2.72,6.37,5.79,12.28,5.15,18.21-.3,2.95-1.5,6.01-2.65,9.28-.91,2.48-1.6,5.15-2.02,7.84-2.22-.21-4.35.53-5.93,1.64-1.78,1.24-3.1,2.92-3.91,4.85-1.53,3.84-1,7.7-.2,11.09.84,3.42,2.03,6.56,2.43,9.86.45,3.21-.45,6.93,1.13,10.09-1.15-3.32.17-6.63.15-10.16.02-3.53-.81-6.96-1.18-10.24-.38-3.25-.24-6.57,1.15-8.99,1.28-2.34,4.18-3.77,5.91-3.05-.31,13.48,5.61,26.3,14.26,35.93,9.24,10.37,21.18,17.55,33.28,23.67-11.81-6.68-23.33-14.42-31.8-24.92-1.38-1.69-2.67-3.46-3.85-5.3,2.67-.38,5.55-.15,8.35.35,3.45.62,6.86,1.65,10.23,2.83,3.37,1.21,6.86,2.38,10.46,2.92,3.58.55,7.38.4,10.67-1.13-3.39,1.27-7.09,1.13-10.52.35-3.47-.78-6.75-2.16-10.04-3.61-3.33-1.42-6.74-2.71-10.32-3.6-3.32-.81-6.84-1.36-10.47-.84-4.98-8.81-7.55-18.93-6.25-28.73.44-3.23,1.27-6.27,2.56-9.33,1.23-3.09,2.77-6.36,3.37-10.19.59-3.85-.02-7.72-1.03-11.18-1.02-3.47-2.37-6.68-3.51-9.8-1.16-3.13-2.05-6.11-2.28-9.08-.25-3.01.08-6.12.78-9.12.39-1.66.91-3.3,1.55-4.9.27,3.84,1.02,7.69,2.38,11.27,4.07,11.06,12.06,19.86,21.07,26.43,3.08,2.26,6.27,4.29,9.53,6.18.25,4.08,1.17,7.93,2.47,11.67,1.32,4,3.6,7.68,6.05,10.92,2.46,3.3,5.13,6.36,7.78,9.43,2.65,3.06,5.49,6.11,8.97,8.22-3.3-2.39-5.81-5.59-8.19-8.85-2.38-3.28-4.78-6.54-6.9-9.94-2.14-3.43-3.93-6.87-4.89-10.67-.76-2.82-1.29-5.75-1.45-8.62,5.11,2.78,10.34,5.28,15.51,7.81l29.53,14.39-28.64-16.1c-9.53-5.37-19.16-10.63-27.41-17.49-2.85-2.33-5.51-4.9-7.91-7.66,2.13.02,4.41.49,6.72,1.17,3.67,1.05,7.56,2.48,11.65,2.97,8.14,1.02,16.13-.58,23.59-3.01-7.68,1.63-15.69,2.27-23.13.49-3.7-.86-7.1-2.55-10.86-4.09-3.37-1.38-7.33-2.67-11.63-2.19-2.8-4-5.01-8.31-6.39-12.89-3.2-9.8-.5-19.97,1.77-30.87.8-4,1.51-8.21,1.63-12.58,2.17,1.66,4.53,3.08,7.1,4.14,6.28,2.66,12.38,4.35,17.29,8.14,4.99,3.68,9.03,8.81,11.81,14.6,2.8,5.79,4.5,12.18,5.06,18.71.09-6.56-.95-13.2-3.26-19.48-2.29-6.28-5.99-12.19-11.13-16.85-5.14-4.82-11.76-7.38-17.22-10.4-4.41-2.3-7.94-6.05-10.79-10.26-.85-3.72-2.11-7.3-3.57-10.68-4.7-10.73-10.94-19.7-15.44-29.23-7.06-14.44-12.23-29.74-15.38-45.37,9.03,18.32,19.21,36.8,34.33,51.99,4.55,4.49,9.54,8.58,14.85,12.17,3.72,2.46,7.53,4.63,11.34,6.66-.7,2.59-.62,5.29.19,7.63l1.96,4.12c.6,1.06,1.13,2.18,1.61,3.32,1.9,4.6,2.8,9.85,2.39,15.21,2.07-4.96,3.03-10.59,2.62-16.33-.11-1.43-.28-2.88-.56-4.32l-.45-3.46c0-.71.2-1.36.48-1.93,8.28,4.2,16.32,8.37,23.06,13.91-.66,7.28-1.44,15.16.41,23.09.9,4.01,2.73,7.72,4.43,10.91,1.73,3.23,3.11,6.29,4.11,9.67,1.59,5.44,2.18,11.25,1.66,17.02l-.04.03s.02.03.03.04c-.12,1.31-.3,2.63-.54,3.93-.62,3.54-1.71,6.97-3.15,10.34-1.39,3.38-2.9,6.86-3.23,10.55.72-3.63,2.54-6.83,4.27-10.05,1.79-3.22,3.33-6.69,4.35-10.3.13-.43.25-.87.36-1.3,1.44,2.59,2.77,5.54,5.1,7.89,1.71,1.72,3.85,2.66,5.82,3.59l6.01,2.81-5.58-3.58c-1.86-1.19-3.72-2.36-4.93-4-2.47-3.18-3.06-7.46-5.42-11.57.83-5.4.77-10.98-.23-16.45-.68-3.77-1.96-7.59-3.35-11-1.39-3.45-2.49-6.55-2.87-9.79-.56-4.45-.13-9.05.65-13.79,5.59,7.12,9.68,15.84,14.23,24.43,2.86,5.4,6.06,10.81,10.09,15.69,1.48,1.84,3.13,3.56,4.89,5.15-.4,2.18-.08,4.11.35,5.95.55,2.17,1.56,4.44,3.05,6.18,2.85,3.4,6.03,5.65,8.3,8.78,4.67,6.17,7.06,14.28,6.24,22.32,1.69-7.9.26-16.57-4.05-23.8-2.13-3.68-5.32-6.6-7.3-9.65-.99-1.46-1.5-3.02-1.79-4.78-.07-.42-.11-.86-.14-1.28,1.62,1.13,3.3,2.16,5.03,3.07,11.06,5.94,23.1,8.3,34.17,12.83,5.5,2.32,10.85,5.15,15.44,9,4.58,3.82,8.38,8.76,10.17,14.57-1.48-5.9-5.06-11.15-9.54-15.3-4.48-4.19-9.8-7.37-15.3-10.04-2.99-1.41-6.04-2.65-9.1-3.85,1.79-.59,3.62-1.1,5.45-1.51,3.08-.74,6.11-.82,9.38-.69,6.46.18,13.38-.92,18.51-4.98-5.45,3.61-12.17,4.08-18.42,3.41-3.15-.39-6.61-.58-9.88-.03-3.18.46-6.29,1.2-9.36,2.13-6.82-2.61-13.56-5.19-19.61-8.9-10.27-5.9-16.49-16.06-21.43-26.88-.72-1.53-1.42-3.08-2.13-4.65,11.91-.69,24.58,3.12,34.56,11.13-9.13-10.49-22.94-17.45-37.84-18.29-3.39-7.16-7.29-14.31-13.06-20.53-2.39-2.55-4.95-4.84-7.61-6.96,6.09-.48,12.36-.11,18.38,1.18,4.84.99,9.34,3.07,14.13,5.25,4.71,2.12,9.87,4.09,15.09,3.81-5.2-.55-9.67-3.15-13.95-5.92-2.15-1.39-4.3-2.85-6.59-4.21-2.33-1.35-4.79-2.5-7.3-3.46-5.05-1.91-10.33-3.16-15.71-3.81-4.86-.61-9.8-.74-14.82-.3-4.07-2.52-8.19-4.84-12.17-7.15-5.21-3.01-10.23-6.05-14.81-9.45-4.54-3.44-8.74-7.27-12.6-11.49-9.58-10.66-16.82-23.22-23.15-36.53,3.19,4.38,6.81,8.42,10.87,12.04,4.38,3.89,9.2,7.33,14.49,9.99,5.37,2.72,10.79,4.43,16.13,5.9,10.74,2.87,21.36,4.39,31.54,6.57,10.2,2.06,19.85,5.29,29.31,9.7.24.11.48.23.72.35,2.12,6.28,4.87,12.07,8.72,17.54,4.13,5.83,9.72,9.66,14.7,13.33,5.09,3.63,9.66,7.47,13.24,12.51,3.62,4.94,6.27,10.69,7.74,16.81-.6-6.26-2.45-12.5-5.5-18.2-2.95-5.75-7.49-10.81-12.07-15.14-4.56-4.39-8.92-8.61-11.47-13.53-1.16-2.19-2.17-4.54-3.03-6.95,4.85,2.72,9.63,5.63,14.36,8.65,8.93,5.61,17.54,11.98,27.13,17.1,4.78,2.55,9.83,4.71,15.08,6.15,1.91.52,3.83.96,5.77,1.33l.02.07s.08-.03.13-.04c3.33.63,6.69,1.04,10.05,1.27,10.73.72,21.38-.2,31.97-1.15-10.62.31-21.31.57-31.77-.78-1.92-.25-3.83-.56-5.72-.94,1.63-.58,3.26-1.14,4.91-1.63,3.22-.94,6.51-1.71,9.78-2.57,6.51-1.69,13.23-3.88,18.31-8.45-5.41,4.18-12.08,5.81-18.65,7.04-3.31.62-6.65,1.15-10.01,1.88-3.25.73-6.36,1.67-9.55,2.52-1.48-.4-2.94-.83-4.38-1.32-4.92-1.69-9.58-4.02-14.03-6.75-8.89-5.45-17.06-12.28-25.77-18.53-8.66-6.29-17.63-12.32-27.22-17.49-4.2-2.29-8.59-4.39-13.07-6.26,1.03-.12,2.08-.21,3.13-.25,5.92-.28,12.16.53,18.51,1.23,12.64,1.42,25.57,2.77,38.28,1.54-12.76-.49-25.05-3.5-37.36-6.59-6.14-1.52-12.41-3.26-19.22-3.88-6.37-.56-13.12-.06-19.59,2.35-.38-.1-.76-.21-1.13-.31-10.47-2.9-20.85-5.05-30.5-8.29-4.82-1.65-9.49-3.49-13.48-5.84-4.09-2.37-7.83-5.4-11.2-8.77-2.97-2.97-5.62-6.27-7.92-9.79,3.59,2.3,7.46,4.09,11.33,5.31,8.11,2.64,16.2,3.35,23.9,3.64,3.86.13,7.64.13,11.31.16l5.39.09,5.41.26c7.74.4,15.35.21,22.82-.1,9-.37,17.86-.91,26.57-.89,6.12,1.54,12.1,5.11,18,9.2,6.57,4.51,13.28,9.72,21.23,13.05.88.39,1.77.74,2.67,1.05,3.35,5.96,7.76,10.75,12.69,14.94,2.56,2.09,5.26,4.02,8.25,5.44,3.01,1.5,6.23,1.92,9.21,3.1-2.76-1.67-5.89-2.72-8.39-4.53-2.58-1.74-4.83-3.94-6.92-6.25-2.91-3.32-5.52-7.01-7.5-10.85,4.89.83,9.8,1.06,14.46,1.58,7.8.85,16.14,2.95,21.34,9.44-2.16-3.46-5.52-6.12-9.19-8-3.69-1.89-7.72-3.08-11.73-3.96-8.03-1.73-16.08-2.67-22.68-6.57-6.76-3.69-12.49-9.17-18.74-14.53-.61-.53-1.24-1.05-1.87-1.58,12.74,2.06,25.86,6.64,39.89,7.9,10,.96,19.87.82,29.64.04,8.51-.2,16.86-.42,24.35,2.84,3.74,1.6,7.43,3.54,11.2,5.44,2.41,2.61,4.47,5.73,6.91,8.68,1.25,1.49,2.54,2.93,4.13,4.2,1.56,1.25,3.24,2.21,4.88,3.14,3.28,1.82,6.51,3.7,8.52,6.83,2.03,3.05,2.98,6.9,2.4,10.64.95-3.66.41-7.75-1.45-11.22-1.81-3.58-5.25-6.05-8.3-8.16-3.2-2.11-5.55-4.37-7.52-7.47-.65-.97-1.28-1.98-1.91-3.01,1.68.72,3.39,1.38,5.14,1.96,8.65,2.91,17.65,2.77,26.32,3.51,8.59.72,17.64,2.51,24.3,8.47-5.85-5.97-14.25-8.51-22.39-9.86,1.98-1.01,3.94-1.98,6-2.61,2.86-.83,6.1-1,9.24-1.06Z" />
</svg>
