<svg xmlns="http://www.w3.org/2000/svg" viewBox="0 0 260 260">
  <path fill="#fff" fill-rule="evenodd" d="M226.7,66.6c-18.3,1-38.8,3.7-38.8,3.7,0,0,4.2-1,7.5-2.6,3.4-1.7,5.9-3.9,5.9-3.9,0,0,6.3-3.3,9.9-6.5,2.8-2.6,3.2-5.2,3.2-5.2,0,0,4.9-.7,9.8-2.9,5.3-2.5,10.7-6.5,10.7-6.5,0,0-49.9,6-86.1,19.3-30.8,11.3-47.3,29.9-47.3,29.9,0,0-37.8-8.4-60.2-1.7-5.5,1.6-12.6,8.8-15.1,14.8-2.3,5.2-.4,9.4-.4,9.4,0,0-6.1,5.2-10.9,10.3-5.9,6.3-10.6,12.8-10.6,12.8,0,0,8.5-7.3,15.9-12.5,6-4.2,11.1-6.4,11.1-6.4,0,0,9.7-2.4,16.2.4,9.5,4,18.6,4.8,18.6,4.8,0,0,1.6,6.8,5.1,12.9,3.7,6.4,9.2,12.1,9.2,12.1,0,0-10.1,11.6-19.5,15.3-6.8,2.6-7.1,6.2-7.1,6.2,0,0-5.5,5.6-5.5,8.5s5.5,2.6,5.5,2.6c0,0-3.5,8-2.1,11.4,1.2,2.9,7.3,1.3,7.3,1.3,0,0-.4,9.7,2.3,13.5,2,2.8,7.5.1,7.5.1,0,0,1.3,5.5,3.5,6.8,2,1.2,5-1.9,5-1.9,0,0,1.3,5.6,3.1,4.8,3.1-1.3,6.6-8.8,6.6-8.8,0,0,4.3,0,6.8-2.3,2.3-2.2,2.7-6.6,2.7-6.6,0,0,1-3.4,3.2-6.3,3.8-5.2,5.5-.7,13.2-21.3,2.3-6.1,7-7.2,9.6-12.8,5.5-11.4,4.2-22.1,4.2-22.1,0,0,1.3.1,2.4-.6,1.2-.8,2.2-2.6,2.2-2.6,0,0,2.3,0,4-1.2,2-1.4,3.5-4,3.5-4,0,0,5.5,1.1,9.2.2,3.6-.9,5.5-3.8,6.1-3.8s7.2,0,11-1.1c3.8-1.2,4.9-3.8,4.9-3.8,0,0,5.8-.6,8.6-2.2,2.3-1.4,1.7-3.9,2.4-3.9s6.8.5,10.3-1.5c5-2.9,7.6-8.6,7.6-8.6,0,0,15.4-3.4,27.7-11.3,15.8-10.3,29.5-25.8,29.5-25.8,0,0-13.8-.9-29.2-.1h0Z" />
</svg>
