<?xml version="1.0" standalone="no"?>
<!DOCTYPE svg PUBLIC "-//W3C//DTD SVG 20010904//EN"
 "http://www.w3.org/TR/2001/REC-SVG-20010904/DTD/svg10.dtd">
<svg version="1.0" xmlns="http://www.w3.org/2000/svg"
 width="700.000000pt" height="700.000000pt" viewBox="0 0 700.000000 700.000000"
 preserveAspectRatio="xMidYMid meet">
<metadata>
Created by potrace 1.14, written by Peter Selinger 2001-2017
</metadata>
<g transform="translate(0.000000,700.000000) scale(0.100000,-0.100000)"
fill="#000000" stroke="none">
<path d="M5665 5384 c-963 -145 -1626 -319 -2074 -543 -230 -115 -471 -279
-638 -435 l-81 -76 -69 14 c-457 97 -1084 99 -1278 6 -95 -46 -222 -176 -277
-283 -25 -51 -37 -127 -28 -180 l8 -41 -128 -123 c-110 -106 -259 -272 -308
-345 -15 -22 -15 -22 4 -7 87 74 254 202 324 249 188 126 253 150 403 150 87
0 126 -9 272 -60 50 -17 140 -41 202 -53 l112 -21 12 -46 c37 -137 127 -299
237 -427 l61 -71 -97 -94 c-126 -122 -197 -174 -326 -237 -98 -48 -156 -95
-156 -128 0 -5 -9 -18 -21 -28 -35 -32 -99 -136 -99 -161 0 -27 43 -54 85 -54
30 0 30 -7 5 -88 -11 -35 -20 -88 -20 -118 0 -71 24 -89 105 -81 l55 6 0 -47
c1 -78 19 -181 40 -222 27 -53 65 -61 155 -35 17 5 22 -1 34 -40 8 -26 25 -60
39 -77 21 -25 30 -29 56 -24 16 4 37 13 46 21 23 21 25 20 44 -29 34 -89 80
-65 165 85 30 54 34 57 77 62 78 8 125 56 150 152 24 92 71 171 132 224 71 60
120 135 177 274 77 187 90 210 173 300 63 68 86 102 112 164 42 102 70 237 70
346 0 82 1 87 21 87 12 0 35 15 53 33 17 19 50 39 73 45 28 8 54 27 80 56 l39
44 80 -5 c97 -7 148 6 205 52 37 29 52 35 94 35 132 1 242 33 282 83 13 16 36
26 81 34 90 17 134 41 155 86 19 37 19 37 81 37 97 0 160 23 223 83 30 29 66
71 80 94 20 34 33 45 66 53 108 27 293 96 402 149 129 63 288 170 425 284 102
86 370 346 370 360 0 6 -144 7 -392 4 -405 -5 -604 -19 -1023 -72 -32 -4 -24
1 37 23 43 16 114 53 160 83 253 166 262 173 296 229 32 54 33 55 111 75 88
24 174 63 271 125 70 46 90 61 75 59 -6 -1 -50 -7 -100 -15z"/>
</g>
</svg>
